<?xml version="1.0" encoding="UTF-8" standalone="no"?><!DOCTYPE svg PUBLIC "-//W3C//DTD SVG 1.1//EN" "http://www.w3.org/Graphics/SVG/1.1/DTD/svg11.dtd"><svg width="100%" height="100%" viewBox="0 0 215 227" version="1.1" xmlns="http://www.w3.org/2000/svg" xmlns:xlink="http://www.w3.org/1999/xlink" xml:space="preserve" xmlns:serif="http://www.serif.com/" style="fill-rule:evenodd;clip-rule:evenodd;stroke-linejoin:round;stroke-miterlimit:1.41421;"><rect id="ArtBoard1" x="0" y="0" width="214.667" height="226.333" style="fill:none;"/><path d="M40.09,44.846c0.296,-2.22 0.312,-6.517 1.769,-8.374c2.343,-2.985 11.431,1.304 14.203,2.32" style="fill:none;"/><path d="M19.827,16.777l0.147,0.003l0.147,0.004l0.147,0.006l0.147,0.008l0.147,0.01l0.146,0.011l0.145,0.013l0.145,0.015l0.145,0.016l0.144,0.018l0.144,0.019l0.143,0.02l0.143,0.022l0.142,0.022l0.141,0.024l0.14,0.024l0.14,0.026l0.139,0.026l0.137,0.027l0.137,0.028l0.138,0.029l0.267,0.058l0.265,0.061l0.259,0.061l0.255,0.063l0.249,0.062l0.243,0.063l0.465,0.121l0.995,0.264l0.994,0.264l1.983,0.532l0.991,0.265l0.99,0.263l0.99,0.261l0.494,0.129l0.495,0.128l0.494,0.127l0.495,0.126l0.495,0.125l0.495,0.123l0.495,0.122l0.496,0.12l0.495,0.118l0.496,0.117l0.496,0.115l0.497,0.112l0.496,0.111l0.497,0.108l0.498,0.107l0.498,0.103l0.498,0.101l0.502,0.099l0.098,0.025l0.095,0.034l0.092,0.044l0.086,0.053l0.081,0.061l0.074,0.07l0.066,0.076l0.059,0.083l0.049,0.088l0.041,0.093l0.031,0.096l0.021,0.099l0.011,0.101l0.001,0.101l-0.009,0.101l-0.02,0.099l-0.029,0.097l-0.04,0.094l-0.048,0.089l-0.057,0.083l-0.066,0.078l-0.073,0.07l-0.079,0.063l-0.086,0.054l-0.09,0.045l-0.095,0.036l-0.098,0.026l-0.1,0.016l-0.101,0.006l-0.101,-0.004l-0.1,-0.015l-0.507,-0.1l-0.509,-0.103l-0.507,-0.105l-0.507,-0.108l-0.506,-0.111l-0.505,-0.112l-0.505,-0.115l-0.503,-0.116l-0.503,-0.119l-0.503,-0.12l-0.501,-0.122l-0.501,-0.123l-0.501,-0.124l-0.5,-0.126l-0.499,-0.127l-0.499,-0.128l-0.498,-0.13l-0.499,-0.13l-0.994,-0.262l-0.994,-0.264l-0.992,-0.265l-1.983,-0.531l-0.99,-0.264l-0.99,-0.262l-0.459,-0.12l-0.234,-0.06l-0.239,-0.06l-0.241,-0.06l-0.244,-0.058l-0.247,-0.056l-0.249,-0.054l-0.124,-0.026l-0.125,-0.026l-0.125,-0.024l-0.125,-0.024l-0.126,-0.023l-0.126,-0.022l-0.125,-0.021l-0.126,-0.02l-0.125,-0.019l-0.125,-0.017l-0.125,-0.017l-0.125,-0.015l-0.125,-0.014l-0.124,-0.013l-0.123,-0.011l-0.123,-0.01l-0.122,-0.008l-0.122,-0.006l-0.121,-0.005l-0.12,-0.004l-0.119,-0.002l-0.119,0l-0.117,0.002l-0.116,0.003l-0.115,0.006l-0.114,0.007l-0.113,0.009l-0.112,0.011l-0.11,0.013l-0.108,0.015l-0.108,0.016l-0.105,0.019l-0.105,0.021l-0.102,0.023l-0.104,0.026l-0.047,0.012l-0.05,0.014l-0.049,0.014l-0.048,0.015l-0.049,0.015l-0.047,0.016l-0.048,0.017l-0.047,0.017l-0.046,0.017l-0.046,0.018l-0.046,0.019l-0.045,0.019l-0.045,0.02l-0.045,0.02l-0.044,0.021l-0.043,0.021l-0.043,0.022l-0.043,0.022l-0.043,0.023l-0.042,0.024l-0.041,0.024l-0.041,0.025l-0.041,0.026l-0.041,0.026l-0.04,0.027l-0.037,0.026l-0.006,0.004l-0.014,0.011l-0.012,0.011l-0.013,0.013l-0.014,0.015l-0.016,0.019l-0.018,0.022l-0.018,0.025l-0.019,0.028l-0.02,0.031l-0.02,0.034l-0.021,0.037l-0.021,0.04l-0.021,0.043l-0.021,0.046l-0.021,0.048l-0.021,0.051l-0.021,0.053l-0.02,0.055l-0.02,0.058l-0.02,0.06l-0.019,0.061l-0.019,0.064l-0.019,0.065l-0.018,0.067l-0.017,0.068l-0.017,0.069l-0.016,0.071l-0.016,0.072l-0.015,0.071l-0.03,0.151l-0.027,0.151l-0.026,0.154l-0.024,0.155l-0.022,0.157l-0.021,0.156l-0.019,0.155l-0.019,0.155l-0.017,0.152l-0.034,0.299l-0.032,0.283l-0.016,0.138l-0.017,0.132l-0.019,0.129l-0.018,0.12l-0.14,0.845l-0.138,0.844l-0.068,0.424l-0.067,0.424l-0.067,0.425l-0.065,0.426l-0.065,0.426l-0.063,0.427l-0.062,0.427l-0.06,0.427l-0.059,0.428l-0.056,0.428l-0.055,0.428l-0.053,0.428l-0.051,0.428l-0.048,0.427l-0.046,0.428l-0.043,0.427l-0.041,0.426l-0.038,0.427l-0.017,0.212l-0.017,0.212l-0.017,0.213l-0.015,0.212l-0.015,0.212l-0.013,0.212l-0.013,0.211l-0.012,0.212l-0.012,0.211l-0.01,0.211l-0.009,0.21l-0.009,0.21l-0.007,0.21l-0.007,0.21l-0.006,0.209l-0.004,0.21l-0.004,0.208l-0.002,0.209l-0.002,0.208l-0.001,0.21l-0.005,0.101l-0.015,0.1l-0.026,0.098l-0.036,0.095l-0.044,0.091l-0.054,0.086l-0.062,0.08l-0.07,0.073l-0.077,0.066l-0.084,0.057l-0.088,0.049l-0.094,0.04l-0.096,0.03l-0.1,0.02l-0.1,0.01l-0.102,0l-0.1,-0.011l-0.1,-0.02l-0.096,-0.031l-0.093,-0.04l-0.089,-0.049l-0.083,-0.058l-0.076,-0.067l-0.07,-0.073l-0.062,-0.081l-0.053,-0.086l-0.044,-0.091l-0.035,-0.095l-0.026,-0.098l-0.015,-0.1l-0.005,-0.101l0.001,-0.216l0.002,-0.218l0.002,-0.218l0.004,-0.218l0.005,-0.219l0.006,-0.218l0.007,-0.219l0.008,-0.219l0.009,-0.219l0.009,-0.219l0.011,-0.219l0.012,-0.219l0.012,-0.22l0.014,-0.219l0.014,-0.22l0.015,-0.219l0.016,-0.22l0.017,-0.219l0.017,-0.22l0.019,-0.22l0.039,-0.439l0.041,-0.439l0.045,-0.439l0.047,-0.439l0.049,-0.438l0.052,-0.438l0.054,-0.438l0.056,-0.437l0.058,-0.436l0.06,-0.436l0.061,-0.435l0.063,-0.434l0.064,-0.433l0.065,-0.432l0.067,-0.431l0.067,-0.429l0.068,-0.429l0.069,-0.427l0.138,-0.85l0.139,-0.838l0.015,-0.095l0.014,-0.102l0.015,-0.113l0.015,-0.123l0.031,-0.275l0.033,-0.301l0.019,-0.16l0.02,-0.165l0.021,-0.168l0.023,-0.173l0.025,-0.175l0.027,-0.178l0.03,-0.18l0.033,-0.181l0.035,-0.18l0.02,-0.093l0.02,-0.092l0.021,-0.091l0.022,-0.091l0.024,-0.091l0.024,-0.091l0.026,-0.091l0.027,-0.09l0.028,-0.09l0.03,-0.09l0.031,-0.09l0.033,-0.089l0.034,-0.089l0.036,-0.088l0.039,-0.088l0.04,-0.087l0.043,-0.087l0.045,-0.086l0.047,-0.085l0.051,-0.084l0.053,-0.084l0.056,-0.082l0.06,-0.082l0.064,-0.08l0.067,-0.078l0.071,-0.077l0.076,-0.075l0.08,-0.072l0.08,-0.065l0.049,-0.038l0.043,-0.031l0.067,-0.046l0.065,-0.044l0.066,-0.042l0.067,-0.042l0.067,-0.04l0.067,-0.04l0.068,-0.038l0.068,-0.037l0.068,-0.036l0.069,-0.035l0.07,-0.034l0.069,-0.033l0.07,-0.031l0.07,-0.031l0.07,-0.03l0.071,-0.029l0.071,-0.027l0.071,-0.027l0.072,-0.026l0.071,-0.025l0.072,-0.024l0.072,-0.022l0.072,-0.022l0.073,-0.022l0.072,-0.02l0.076,-0.02l0.142,-0.035l0.147,-0.033l0.146,-0.029l0.147,-0.026l0.147,-0.023l0.148,-0.02l0.147,-0.018l0.148,-0.014l0.148,-0.012l0.148,-0.009l0.148,-0.007l0.147,-0.005l0.148,-0.002l0.148,0Z"/><path d="M18.737,19.23l0.235,0.114l0.198,0.171l0.147,0.215l0.084,0.169l0.085,0.167l0.085,0.166l0.086,0.165l0.087,0.166l0.087,0.165l0.089,0.164l0.088,0.165l0.09,0.164l0.089,0.162l0.183,0.327l0.185,0.325l0.187,0.324l0.19,0.322l0.192,0.321l0.194,0.32l0.197,0.319l0.199,0.318l0.201,0.317l0.203,0.316l0.205,0.314l0.207,0.314l0.209,0.313l0.21,0.312l0.213,0.311l0.214,0.311l0.216,0.31l0.217,0.308l0.219,0.309l0.22,0.307l0.222,0.307l0.222,0.307l0.225,0.306l0.225,0.305l0.226,0.305l0.228,0.304l0.228,0.304l0.229,0.304l0.231,0.303l0.231,0.303l0.231,0.303l0.466,0.605l0.467,0.605l0.469,0.604l0.47,0.604l0.94,1.209l0.47,0.606l0.469,0.608l0.467,0.608l0.233,0.305l0.232,0.306l0.231,0.306l0.231,0.307l0.23,0.307l0.229,0.308l0.228,0.308l0.227,0.31l0.226,0.31l0.225,0.311l0.247,0.344l0.247,0.346l0.245,0.347l0.244,0.347l0.242,0.349l0.242,0.35l0.241,0.352l0.24,0.352l0.238,0.353l0.238,0.354l0.236,0.356l0.236,0.356l0.234,0.357l0.233,0.358l0.232,0.359l0.231,0.361l0.23,0.361l0.229,0.362l0.227,0.362l0.227,0.364l0.225,0.365l0.224,0.365l0.223,0.366l0.222,0.367l0.221,0.368l0.22,0.368l0.218,0.37l0.218,0.37l0.216,0.371l0.215,0.371l0.214,0.372l0.213,0.373l0.212,0.374l0.21,0.374l0.209,0.374l0.208,0.376l0.207,0.376l0.206,0.376l0.205,0.377l0.203,0.378l0.202,0.378l0.201,0.379l0.2,0.379l0.198,0.379l0.198,0.38l0.196,0.381l0.195,0.381l0.194,0.381l0.192,0.382l0.191,0.382l0.19,0.383l0.189,0.383l0.188,0.383l0.186,0.383l0.185,0.384l0.184,0.384l0.182,0.384l0.182,0.385l0.18,0.385l0.178,0.385l0.178,0.385l0.176,0.385l0.175,0.386l0.174,0.386l0.223,0.5l0.222,0.501l0.221,0.503l0.22,0.504l0.218,0.505l0.217,0.506l0.216,0.507l0.214,0.509l0.213,0.51l0.212,0.51l0.21,0.512l0.209,0.513l0.207,0.515l0.206,0.515l0.205,0.516l0.203,0.517l0.202,0.519l0.2,0.519l0.199,0.521l0.197,0.521l0.196,0.523l0.194,0.523l0.193,0.525l0.191,0.525l0.19,0.526l0.188,0.527l0.187,0.528l0.185,0.529l0.183,0.53l0.182,0.531l0.18,0.532l0.179,0.532l0.177,0.534l0.175,0.534l0.174,0.535l0.172,0.535l0.17,0.537l0.169,0.537l0.167,0.538l0.165,0.539l0.163,0.54l0.162,0.54l0.159,0.541l0.159,0.541l0.156,0.543l0.154,0.543l0.153,0.543l0.151,0.545l0.149,0.545l0.147,0.545l0.145,0.546l0.144,0.547l0.141,0.547l0.14,0.548l0.138,0.548l0.136,0.549l0.134,0.55l0.131,0.55l0.13,0.55l0.128,0.551l0.126,0.551l0.124,0.552l0.123,0.552l0.119,0.553l0.118,0.553l0.116,0.554l0.114,0.554l0.112,0.554l0.11,0.555l0.107,0.555l0.106,0.555l0.103,0.556l0.101,0.556l0.099,0.556l0.097,0.557l0.095,0.556l0.093,0.558l0.09,0.557l0.088,0.558l0.086,0.557l0.084,0.558l0.082,0.559l0.079,0.558l0.077,0.559l0.074,0.558l0.073,0.559l0.07,0.559l0.068,0.559l0.065,0.559l0.063,0.56l0.061,0.559l0.058,0.56l0.056,0.559l0.054,0.56l0.051,0.559l0.049,0.56l0.046,0.559l0.044,0.56l0.041,0.56l0.039,0.559l0.037,0.559l0.034,0.56l0.031,0.559l0.029,0.559l0.027,0.559l0.024,0.559l0.021,0.559l0.019,0.559l0.016,0.559l0.013,0.558l0.011,0.558l0.009,0.558l0.005,0.558l0.004,0.557l0,0.558l-0.002,0.557l-0.005,0.557l-0.008,0.556l-0.01,0.556l-0.013,0.556l-0.016,0.556l-0.018,0.555l-0.022,0.555l-0.024,0.555l-0.027,0.554l-0.029,0.554l-0.033,0.553l-0.035,0.553l-0.041,0.592l-0.043,0.591l-0.046,0.59l-0.049,0.59l-0.052,0.589l-0.055,0.588l-0.057,0.588l-0.06,0.588l-0.063,0.587l-0.065,0.586l-0.068,0.586l-0.07,0.586l-0.074,0.584l-0.076,0.585l-0.078,0.583l-0.081,0.583l-0.084,0.583l-0.086,0.582l-0.088,0.581l-0.091,0.581l-0.094,0.58l-0.096,0.58l-0.098,0.579l-0.101,0.579l-0.104,0.578l-0.105,0.577l-0.108,0.577l-0.111,0.577l-0.113,0.576l-0.115,0.575l-0.117,0.575l-0.12,0.574l-0.122,0.573l-0.124,0.574l-0.126,0.572l-0.129,0.572l-0.131,0.571l-0.133,0.571l-0.135,0.571l-0.137,0.569l-0.14,0.57l-0.141,0.568l-0.144,0.568l-0.146,0.568l-0.148,0.567l-0.149,0.566l-0.152,0.566l-0.154,0.565l-0.156,0.565l-0.158,0.564l-0.16,0.564l-0.161,0.563l-0.164,0.563l-0.165,0.562l-0.168,0.561l-0.169,0.561l-0.171,0.561l-0.173,0.559l-0.175,0.56l-0.176,0.558l-0.179,0.559l-0.18,0.557l-0.182,0.557l-0.183,0.557l-0.185,0.556l-0.187,0.555l-0.189,0.555l-0.19,0.555l-0.192,0.553l-0.194,0.554l-0.195,0.552l-0.197,0.552l-0.198,0.552l-0.2,0.551l-0.201,0.551l-0.203,0.55l-0.204,0.549l-0.206,0.549l-0.208,0.548l-0.208,0.548l-0.211,0.547l-0.211,0.547l-0.213,0.546l-0.215,0.546l-0.215,0.545l-0.217,0.545l-0.219,0.544l-0.22,0.543l-0.221,0.543l-0.222,0.543l-0.223,0.541l-0.225,0.542l-0.226,0.541l-0.227,0.54l-0.229,0.539l-0.229,0.54l-0.231,0.538l-0.232,0.538l-0.233,0.538l-0.234,0.537l-0.235,0.536l-0.236,0.536l-0.237,0.536l-0.239,0.535l-0.239,0.534l-0.24,0.534l-0.241,0.533l-0.243,0.533l-0.243,0.532l-0.244,0.532l-0.245,0.531l-0.246,0.53l-0.246,0.531l-0.248,0.529l-0.249,0.529l-0.249,0.529l-0.25,0.528l-0.251,0.527l-0.251,0.527l-0.253,0.526l-0.253,0.526l-0.254,0.525l-0.254,0.525l-0.255,0.524l-0.256,0.524l-0.257,0.523l-0.257,0.523l-0.257,0.521l-0.146,0.217l-0.196,0.172l-0.234,0.116l-0.256,0.051l-0.261,-0.018l-0.247,-0.084l-0.217,-0.145l-0.172,-0.196l-0.115,-0.234l-0.051,-0.256l0.017,-0.261l0.084,-0.247l0.257,-0.52l0.256,-0.52l0.255,-0.521l0.255,-0.521l0.254,-0.522l0.253,-0.522l0.253,-0.523l0.252,-0.523l0.251,-0.523l0.25,-0.524l0.249,-0.525l0.249,-0.525l0.248,-0.526l0.247,-0.526l0.246,-0.526l0.245,-0.527l0.245,-0.527l0.243,-0.528l0.243,-0.529l0.241,-0.529l0.241,-0.529l0.24,-0.53l0.239,-0.53l0.237,-0.531l0.237,-0.531l0.236,-0.532l0.234,-0.532l0.234,-0.533l0.232,-0.533l0.231,-0.534l0.23,-0.534l0.229,-0.535l0.228,-0.535l0.227,-0.536l0.225,-0.536l0.225,-0.536l0.223,-0.537l0.221,-0.538l0.221,-0.538l0.219,-0.539l0.218,-0.539l0.217,-0.539l0.215,-0.54l0.214,-0.541l0.212,-0.541l0.212,-0.541l0.209,-0.542l0.209,-0.543l0.207,-0.542l0.205,-0.544l0.204,-0.544l0.203,-0.544l0.201,-0.545l0.199,-0.545l0.198,-0.546l0.196,-0.546l0.195,-0.547l0.193,-0.548l0.192,-0.547l0.19,-0.549l0.188,-0.548l0.187,-0.55l0.185,-0.549l0.183,-0.55l0.182,-0.551l0.18,-0.551l0.178,-0.552l0.177,-0.552l0.174,-0.553l0.173,-0.553l0.171,-0.554l0.169,-0.554l0.168,-0.554l0.165,-0.555l0.164,-0.556l0.161,-0.556l0.16,-0.557l0.158,-0.557l0.156,-0.557l0.154,-0.558l0.152,-0.559l0.15,-0.559l0.148,-0.559l0.146,-0.56l0.144,-0.561l0.142,-0.561l0.14,-0.561l0.137,-0.562l0.136,-0.562l0.133,-0.563l0.131,-0.564l0.13,-0.564l0.127,-0.564l0.124,-0.565l0.123,-0.565l0.12,-0.566l0.118,-0.567l0.116,-0.566l0.113,-0.568l0.112,-0.568l0.109,-0.568l0.106,-0.569l0.104,-0.569l0.102,-0.57l0.1,-0.57l0.097,-0.571l0.094,-0.571l0.092,-0.572l0.09,-0.572l0.088,-0.573l0.084,-0.574l0.083,-0.573l0.079,-0.575l0.078,-0.574l0.074,-0.576l0.072,-0.576l0.07,-0.576l0.067,-0.577l0.064,-0.577l0.062,-0.578l0.059,-0.578l0.056,-0.579l0.054,-0.579l0.051,-0.58l0.048,-0.58l0.046,-0.581l0.043,-0.581l0.04,-0.582l0.034,-0.543l0.032,-0.543l0.029,-0.544l0.026,-0.544l0.024,-0.544l0.021,-0.545l0.018,-0.546l0.016,-0.546l0.012,-0.546l0.01,-0.546l0.008,-0.547l0.005,-0.547l0.002,-0.548l0,-0.547l-0.003,-0.548l-0.006,-0.549l-0.008,-0.548l-0.011,-0.549l-0.013,-0.549l-0.016,-0.55l-0.019,-0.549l-0.021,-0.55l-0.023,-0.55l-0.026,-0.55l-0.029,-0.55l-0.031,-0.55l-0.033,-0.551l-0.036,-0.55l-0.039,-0.551l-0.04,-0.551l-0.044,-0.551l-0.045,-0.551l-0.048,-0.551l-0.051,-0.551l-0.052,-0.551l-0.055,-0.551l-0.058,-0.551l-0.06,-0.551l-0.062,-0.551l-0.064,-0.551l-0.067,-0.551l-0.069,-0.551l-0.072,-0.551l-0.073,-0.55l-0.076,-0.551l-0.078,-0.55l-0.08,-0.551l-0.083,-0.55l-0.085,-0.55l-0.087,-0.55l-0.089,-0.549l-0.091,-0.55l-0.094,-0.549l-0.095,-0.549l-0.098,-0.549l-0.1,-0.548l-0.102,-0.548l-0.104,-0.548l-0.106,-0.548l-0.108,-0.547l-0.111,-0.547l-0.112,-0.547l-0.114,-0.546l-0.117,-0.546l-0.118,-0.546l-0.121,-0.545l-0.122,-0.545l-0.124,-0.544l-0.127,-0.544l-0.128,-0.543l-0.13,-0.543l-0.133,-0.543l-0.134,-0.542l-0.136,-0.541l-0.138,-0.541l-0.14,-0.541l-0.141,-0.54l-0.144,-0.539l-0.145,-0.539l-0.147,-0.538l-0.149,-0.538l-0.151,-0.537l-0.153,-0.537l-0.154,-0.535l-0.156,-0.536l-0.158,-0.534l-0.16,-0.534l-0.162,-0.533l-0.163,-0.532l-0.165,-0.532l-0.166,-0.531l-0.168,-0.53l-0.17,-0.53l-0.172,-0.529l-0.173,-0.528l-0.175,-0.527l-0.177,-0.526l-0.178,-0.526l-0.18,-0.524l-0.181,-0.524l-0.183,-0.523l-0.184,-0.522l-0.186,-0.522l-0.188,-0.52l-0.189,-0.519l-0.191,-0.519l-0.192,-0.517l-0.194,-0.517l-0.195,-0.515l-0.196,-0.515l-0.198,-0.514l-0.2,-0.512l-0.201,-0.512l-0.202,-0.51l-0.204,-0.51l-0.205,-0.508l-0.206,-0.508l-0.208,-0.506l-0.21,-0.505l-0.21,-0.504l-0.212,-0.503l-0.213,-0.502l-0.215,-0.501l-0.216,-0.499l-0.217,-0.498l-0.219,-0.497l-0.219,-0.496l-0.221,-0.495l-0.171,-0.38l-0.173,-0.381l-0.174,-0.38l-0.175,-0.38l-0.176,-0.379l-0.178,-0.38l-0.179,-0.379l-0.18,-0.379l-0.181,-0.379l-0.182,-0.379l-0.184,-0.378l-0.185,-0.378l-0.186,-0.377l-0.188,-0.377l-0.188,-0.377l-0.19,-0.377l-0.191,-0.376l-0.192,-0.375l-0.194,-0.376l-0.194,-0.374l-0.196,-0.375l-0.197,-0.373l-0.198,-0.374l-0.199,-0.372l-0.201,-0.373l-0.201,-0.371l-0.203,-0.372l-0.204,-0.37l-0.205,-0.37l-0.207,-0.37l-0.207,-0.368l-0.209,-0.368l-0.209,-0.368l-0.211,-0.366l-0.212,-0.366l-0.213,-0.366l-0.214,-0.364l-0.216,-0.364l-0.216,-0.363l-0.218,-0.362l-0.218,-0.362l-0.22,-0.361l-0.221,-0.359l-0.222,-0.359l-0.223,-0.359l-0.224,-0.357l-0.225,-0.356l-0.226,-0.356l-0.228,-0.354l-0.228,-0.354l-0.23,-0.352l-0.23,-0.352l-0.232,-0.35l-0.232,-0.35l-0.234,-0.348l-0.235,-0.348l-0.235,-0.346l-0.237,-0.346l-0.238,-0.344l-0.239,-0.343l-0.24,-0.342l-0.241,-0.341l-0.242,-0.34l-0.242,-0.338l-0.221,-0.305l-0.222,-0.304l-0.223,-0.304l-0.224,-0.304l-0.226,-0.303l-0.226,-0.303l-0.228,-0.303l-0.229,-0.302l-0.229,-0.302l-0.231,-0.302l-0.463,-0.604l-0.466,-0.603l-0.467,-0.603l-0.94,-1.208l-0.47,-0.605l-0.471,-0.607l-0.47,-0.608l-0.469,-0.609l-0.234,-0.306l-0.233,-0.306l-0.233,-0.307l-0.232,-0.307l-0.232,-0.309l-0.231,-0.308l-0.23,-0.31l-0.229,-0.311l-0.228,-0.311l-0.227,-0.312l-0.226,-0.313l-0.225,-0.314l-0.223,-0.315l-0.223,-0.317l-0.221,-0.317l-0.219,-0.318l-0.218,-0.32l-0.217,-0.32l-0.215,-0.322l-0.213,-0.323l-0.211,-0.325l-0.21,-0.326l-0.207,-0.327l-0.206,-0.328l-0.204,-0.331l-0.201,-0.331l-0.199,-0.333l-0.197,-0.335l-0.195,-0.337l-0.192,-0.338l-0.189,-0.339l-0.095,-0.171l-0.093,-0.171l-0.093,-0.171l-0.092,-0.172l-0.091,-0.173l-0.091,-0.172l-0.09,-0.174l-0.089,-0.173l-0.088,-0.175l-0.087,-0.172l-0.086,-0.247l-0.019,-0.26l0.049,-0.257l0.113,-0.235l0.171,-0.197l0.216,-0.147l0.247,-0.086l0.26,-0.019l0.256,0.049Z"/><path d="M33.538,193.853l0.089,0.014l0.086,0.022l0.085,0.03l0.082,0.038l0.078,0.044l0.073,0.051l0.069,0.058l0.063,0.064l0.057,0.069l0.051,0.074l0.044,0.078l0.037,0.082l0.03,0.084l0.021,0.087l0.014,0.089l0.006,0.09l-0.002,0.089l-0.011,0.155l-0.013,0.161l-0.013,0.162l-0.015,0.165l-0.015,0.166l-0.017,0.169l-0.036,0.339l-0.038,0.348l-0.042,0.353l-0.043,0.358l-0.045,0.364l-0.092,0.737l-0.046,0.374l-0.046,0.375l-0.045,0.377l-0.044,0.378l-0.041,0.378l-0.04,0.378l-0.018,0.188l-0.018,0.188l-0.017,0.187l-0.016,0.187l-0.015,0.186l-0.014,0.185l-0.013,0.184l-0.012,0.183l-0.011,0.183l-0.009,0.181l-0.008,0.18l-0.007,0.178l-0.006,0.177l-0.003,0.175l-0.003,0.174l-0.001,0.172l0.001,0.17l0.002,0.168l0.004,0.166l0.006,0.164l0.008,0.161l0.009,0.159l0.012,0.157l0.013,0.154l0.015,0.15l0.017,0.149l0.019,0.145l0.021,0.142l0.023,0.138l0.025,0.138l0.013,0.064l0.014,0.065l0.014,0.065l0.011,0.048l0.007,0.008l0.011,0.011l0.007,0.007l0.009,0.008l0.009,0.008l0.011,0.009l0.013,0.009l0.013,0.01l0.015,0.01l0.016,0.011l0.018,0.011l0.019,0.012l0.02,0.011l0.021,0.012l0.023,0.012l0.02,0.01l0.056,0.027l0.056,0.025l0.06,0.024l0.064,0.024l0.068,0.024l0.072,0.023l0.076,0.023l0.078,0.022l0.081,0.021l0.084,0.02l0.086,0.019l0.089,0.018l0.09,0.018l0.093,0.016l0.094,0.015l0.095,0.014l0.096,0.014l0.097,0.012l0.098,0.012l0.099,0.01l0.099,0.01l0.099,0.009l0.099,0.007l0.1,0.007l0.098,0.007l0.099,0.005l0.095,0.005l0.195,0.007l0.187,0.004l0.182,0.002l0.174,0l0.164,-0.002l0.155,-0.004l0.143,-0.005l0.129,-0.006l0.115,-0.006l0.097,-0.007l0.08,-0.007l0.228,-0.023l0.23,-0.026l0.229,-0.028l0.23,-0.03l0.229,-0.033l0.229,-0.036l0.229,-0.037l0.229,-0.04l0.229,-0.041l0.228,-0.044l0.229,-0.046l0.229,-0.047l0.229,-0.049l0.228,-0.051l0.229,-0.053l0.229,-0.054l0.229,-0.056l0.228,-0.057l0.229,-0.059l0.229,-0.059l0.23,-0.061l0.229,-0.062l0.229,-0.064l0.23,-0.064l0.23,-0.065l0.229,-0.066l0.461,-0.134l0.462,-0.137l0.462,-0.138l0.929,-0.279l0.466,-0.14l0.468,-0.14l0.469,-0.138l0.471,-0.136l0.237,-0.067l0.237,-0.066l0.237,-0.066l0.238,-0.064l0.239,-0.064l0.239,-0.062l0.24,-0.062l0.24,-0.06l0.241,-0.058l0.242,-0.058l0.242,-0.056l0.243,-0.054l0.243,-0.053l0.245,-0.051l0.245,-0.049l0.246,-0.047l0.246,-0.045l0.248,-0.043l0.248,-0.041l0.244,-0.038l0.089,-0.009l0.09,-0.002l0.089,0.006l0.089,0.014l0.087,0.023l0.085,0.03l0.081,0.037l0.078,0.045l0.074,0.051l0.068,0.058l0.064,0.063l0.057,0.069l0.051,0.074l0.044,0.078l0.037,0.082l0.029,0.085l0.022,0.087l0.013,0.089l0.006,0.089l-0.002,0.09l-0.011,0.089l-0.018,0.088l-0.026,0.086l-0.034,0.083l-0.041,0.08l-0.048,0.076l-0.054,0.071l-0.061,0.066l-0.067,0.06l-0.071,0.054l-0.076,0.048l-0.08,0.04l-0.084,0.033l-0.086,0.026l-0.088,0.018l-0.235,0.036l-0.229,0.038l-0.23,0.04l-0.23,0.042l-0.229,0.044l-0.23,0.046l-0.229,0.048l-0.23,0.049l-0.229,0.052l-0.23,0.052l-0.229,0.055l-0.229,0.056l-0.23,0.057l-0.229,0.059l-0.23,0.06l-0.229,0.061l-0.23,0.063l-0.23,0.063l-0.23,0.064l-0.229,0.065l-0.462,0.134l-0.461,0.135l-0.462,0.138l-0.464,0.139l-0.929,0.28l-0.467,0.139l-0.469,0.139l-0.469,0.137l-0.236,0.067l-0.236,0.067l-0.237,0.066l-0.237,0.066l-0.238,0.064l-0.238,0.064l-0.239,0.062l-0.239,0.061l-0.24,0.06l-0.24,0.058l-0.241,0.058l-0.242,0.055l-0.242,0.054l-0.243,0.053l-0.244,0.05l-0.244,0.049l-0.246,0.047l-0.245,0.045l-0.247,0.042l-0.247,0.041l-0.249,0.038l-0.249,0.036l-0.249,0.033l-0.251,0.031l-0.251,0.028l-0.254,0.025l-0.11,0.01l-0.125,0.009l-0.139,0.008l-0.153,0.007l-0.165,0.005l-0.177,0.005l-0.187,0.002l-0.197,0l-0.206,-0.002l-0.214,-0.005l-0.218,-0.008l-0.114,-0.006l-0.113,-0.006l-0.114,-0.007l-0.116,-0.008l-0.116,-0.009l-0.117,-0.011l-0.118,-0.011l-0.118,-0.013l-0.118,-0.014l-0.119,-0.015l-0.119,-0.016l-0.119,-0.018l-0.118,-0.019l-0.119,-0.021l-0.118,-0.023l-0.118,-0.024l-0.118,-0.026l-0.117,-0.028l-0.116,-0.03l-0.116,-0.032l-0.114,-0.035l-0.115,-0.037l-0.113,-0.039l-0.112,-0.043l-0.111,-0.045l-0.111,-0.049l-0.105,-0.05l-0.058,-0.029l-0.054,-0.029l-0.053,-0.03l-0.053,-0.03l-0.053,-0.032l-0.052,-0.034l-0.052,-0.034l-0.052,-0.036l-0.051,-0.037l-0.05,-0.039l-0.05,-0.04l-0.05,-0.042l-0.048,-0.043l-0.048,-0.046l-0.047,-0.047l-0.046,-0.049l-0.045,-0.05l-0.044,-0.053l-0.042,-0.055l-0.041,-0.056l-0.04,-0.059l-0.038,-0.06l-0.035,-0.063l-0.034,-0.064l-0.032,-0.066l-0.029,-0.068l-0.027,-0.069l-0.024,-0.07l-0.022,-0.072l-0.017,-0.066l-0.021,-0.091l-0.019,-0.085l-0.018,-0.085l-0.018,-0.088l-0.031,-0.17l-0.029,-0.174l-0.026,-0.176l-0.023,-0.177l-0.021,-0.178l-0.018,-0.18l-0.015,-0.182l-0.014,-0.182l-0.01,-0.184l-0.009,-0.185l-0.007,-0.187l-0.004,-0.187l-0.003,-0.188l-0.001,-0.19l0.001,-0.19l0.003,-0.191l0.004,-0.192l0.006,-0.193l0.007,-0.193l0.009,-0.194l0.01,-0.194l0.012,-0.195l0.013,-0.195l0.013,-0.196l0.015,-0.195l0.016,-0.196l0.017,-0.196l0.018,-0.196l0.018,-0.196l0.02,-0.196l0.04,-0.39l0.043,-0.389l0.045,-0.387l0.045,-0.384l0.047,-0.38l0.047,-0.376l0.092,-0.737l0.044,-0.359l0.042,-0.352l0.041,-0.344l0.037,-0.336l0.034,-0.327l0.016,-0.158l0.015,-0.156l0.013,-0.154l0.013,-0.151l0.011,-0.148l0.011,-0.148l0.01,-0.089l0.018,-0.088l0.026,-0.086l0.034,-0.083l0.041,-0.08l0.048,-0.075l0.054,-0.072l0.061,-0.066l0.066,-0.06l0.072,-0.054l0.076,-0.048l0.08,-0.04l0.084,-0.034l0.086,-0.025l0.088,-0.018l0.089,-0.01l0.089,-0.001l0.09,0.006Z"/><g transform="matrix(1,0,0,1,-139.333,-7.83341)"><path d="M215.868,93.381c0.3,-0.214 0.604,-0.349 0.914,-0.405c0.309,-0.055 0.636,-0.099 0.981,-0.132l2.441,-9.882c-0.026,0 -0.099,-0.002 -0.219,-0.005c-0.121,-0.004 -0.254,-0.013 -0.401,-0.03c-0.146,-0.016 -0.291,-0.044 -0.434,-0.083c-0.144,-0.039 -0.251,-0.094 -0.323,-0.166c-0.032,-0.045 -0.073,-0.105 -0.122,-0.18c-0.048,-0.075 -0.096,-0.157 -0.141,-0.244c-0.046,-0.088 -0.085,-0.178 -0.117,-0.269c-0.033,-0.091 -0.049,-0.182 -0.049,-0.273c0,-0.15 0.063,-0.276 0.19,-0.376c0.127,-0.101 0.283,-0.183 0.469,-0.245c0.185,-0.061 0.386,-0.105 0.601,-0.131c0.214,-0.026 0.41,-0.039 0.585,-0.039c0.821,0 1.581,0.024 2.281,0.073c0.7,0.049 1.354,0.154 1.963,0.317c0.608,0.163 1.181,0.394 1.718,0.694c0.537,0.299 1.05,0.699 1.538,1.201c0.183,0.188 0.357,0.4 0.523,0.634c0.166,0.235 0.312,0.49 0.439,0.767c0.127,0.277 0.23,0.573 0.308,0.889c0.078,0.315 0.117,0.649 0.117,1.001c0,0.188 -0.01,0.387 -0.029,0.595c-0.02,0.209 -0.046,0.388 -0.078,0.538c-0.189,0.755 -0.454,1.424 -0.796,2.006c-0.342,0.583 -0.739,1.101 -1.192,1.553c-0.452,0.453 -0.948,0.845 -1.489,1.177c-0.54,0.332 -1.1,0.622 -1.679,0.869c-0.58,0.247 -1.169,0.462 -1.768,0.645c-0.599,0.182 -1.182,0.345 -1.748,0.488l0.01,0c-0.254,0.078 -0.528,0.146 -0.821,0.205c-0.293,0.058 -0.589,0.107 -0.888,0.146c-0.3,0.039 -0.598,0.07 -0.894,0.093c-0.296,0.023 -0.574,0.034 -0.835,0.034c-0.286,0 -0.527,-0.018 -0.723,-0.053c-0.195,-0.036 -0.353,-0.085 -0.473,-0.147c-0.121,-0.062 -0.207,-0.132 -0.259,-0.21c-0.052,-0.078 -0.078,-0.163 -0.078,-0.254c0,-0.13 0.037,-0.265 0.112,-0.405c0.075,-0.14 0.197,-0.272 0.366,-0.396Zm4.297,-2.802c-0.078,0.332 -0.159,0.674 -0.244,1.025c-0.084,0.352 -0.166,0.697 -0.244,1.035l0.225,-0.049c0.143,-0.032 0.337,-0.081 0.581,-0.146c0.244,-0.065 0.525,-0.147 0.844,-0.244c0.319,-0.098 0.655,-0.215 1.006,-0.352c0.352,-0.136 0.725,-0.301 1.118,-0.493c0.394,-0.192 0.783,-0.41 1.167,-0.654c0.385,-0.244 0.752,-0.51 1.104,-0.796c0.352,-0.287 0.661,-0.594 0.928,-0.923c0.267,-0.329 0.48,-0.674 0.639,-1.035c0.16,-0.361 0.24,-0.737 0.24,-1.128c0,-0.397 -0.079,-0.773 -0.235,-1.128c-0.156,-0.355 -0.366,-0.684 -0.63,-0.986c-0.263,-0.303 -0.569,-0.573 -0.918,-0.811c-0.348,-0.237 -0.711,-0.441 -1.088,-0.61c-0.378,-0.169 -0.761,-0.298 -1.148,-0.386c-0.387,-0.088 -0.754,-0.132 -1.099,-0.132c-0.488,1.263 -0.905,2.546 -1.25,3.848c-0.345,1.302 -0.677,2.624 -0.996,3.965Z" style="fill-rule:nonzero;"/><path d="M230.429,93.84c0.085,-0.455 0.182,-0.957 0.293,-1.503c0.111,-0.547 0.225,-1.101 0.342,-1.661c0.117,-0.56 0.231,-1.11 0.342,-1.65c0.11,-0.54 0.205,-1.035 0.283,-1.484c-0.007,-0.065 -0.01,-0.122 -0.01,-0.171c0,-0.049 0,-0.103 0,-0.161c0,-0.202 0.013,-0.404 0.039,-0.606c0.026,-0.202 0.062,-0.387 0.107,-0.557c0.072,-0.247 0.152,-0.415 0.24,-0.502c0.088,-0.088 0.229,-0.132 0.425,-0.132c0.188,0 0.34,0.037 0.454,0.112c0.114,0.075 0.203,0.174 0.268,0.298c0.065,0.124 0.108,0.265 0.127,0.425c0.02,0.159 0.029,0.324 0.029,0.493c0,0.091 -0.003,0.192 -0.009,0.303c-0.007,0.11 -0.01,0.198 -0.01,0.263c0.182,-0.189 0.376,-0.382 0.581,-0.581c0.205,-0.198 0.423,-0.377 0.654,-0.537c0.231,-0.159 0.476,-0.291 0.733,-0.395c0.257,-0.105 0.525,-0.157 0.805,-0.157c0.111,0 0.22,0.01 0.328,0.03c0.107,0.019 0.216,0.045 0.327,0.078c0.13,0.032 0.265,0.076 0.405,0.132c0.14,0.055 0.275,0.131 0.405,0.229c0.215,0.163 0.396,0.366 0.542,0.61c0.147,0.245 0.22,0.494 0.22,0.747c0,0.098 -0.02,0.204 -0.059,0.318c-0.039,0.114 -0.092,0.218 -0.161,0.312c-0.068,0.095 -0.148,0.173 -0.239,0.235c-0.091,0.062 -0.192,0.093 -0.303,0.093c-0.11,0 -0.246,-0.028 -0.405,-0.083c-0.16,-0.056 -0.291,-0.129 -0.396,-0.22c-0.045,-0.039 -0.092,-0.095 -0.141,-0.166c-0.049,-0.072 -0.095,-0.143 -0.137,-0.215c-0.042,-0.072 -0.081,-0.138 -0.117,-0.2c-0.036,-0.062 -0.064,-0.103 -0.083,-0.122c-0.033,-0.007 -0.068,-0.012 -0.108,-0.015c-0.039,-0.003 -0.074,-0.005 -0.107,-0.005c-0.332,0 -0.648,0.085 -0.947,0.254c-0.3,0.169 -0.58,0.376 -0.84,0.62c-0.26,0.244 -0.5,0.505 -0.718,0.781c-0.218,0.277 -0.408,0.526 -0.571,0.747c-0.13,0.528 -0.275,1.089 -0.435,1.685c-0.159,0.596 -0.317,1.219 -0.473,1.87l0,0.244c0,0.196 -0.007,0.394 -0.02,0.596c-0.013,0.202 -0.052,0.381 -0.117,0.537c-0.072,0.098 -0.174,0.181 -0.308,0.249c-0.133,0.069 -0.288,0.103 -0.464,0.103c-0.273,0 -0.478,-0.09 -0.615,-0.269c-0.136,-0.179 -0.205,-0.389 -0.205,-0.63c0,-0.11 0.016,-0.224 0.049,-0.342Z" style="fill-rule:nonzero;"/><path d="M243.495,94.426c0,-0.188 0.023,-0.415 0.069,-0.678c0.045,-0.264 0.068,-0.591 0.068,-0.982c-0.215,0.156 -0.452,0.342 -0.713,0.557c-0.26,0.215 -0.53,0.42 -0.81,0.615c-0.28,0.195 -0.559,0.36 -0.835,0.493c-0.277,0.134 -0.536,0.2 -0.777,0.2c-0.195,0 -0.38,-0.029 -0.556,-0.087c-0.176,-0.059 -0.326,-0.137 -0.449,-0.235c-0.346,-0.273 -0.595,-0.547 -0.748,-0.82c-0.153,-0.274 -0.229,-0.593 -0.229,-0.957c0,-0.163 0.015,-0.332 0.044,-0.508c0.029,-0.176 0.073,-0.378 0.132,-0.605c0.247,-1.029 0.672,-1.981 1.274,-2.857c0.602,-0.876 1.349,-1.623 2.241,-2.241c0.345,-0.241 0.69,-0.396 1.036,-0.464c0.345,-0.068 0.686,-0.102 1.025,-0.102c0.15,0 0.317,0.009 0.503,0.029c0.185,0.019 0.353,0.039 0.503,0.058c0.149,-0.032 0.272,-0.055 0.366,-0.068c0.094,-0.013 0.194,-0.019 0.298,-0.019c0.195,0 0.358,0.026 0.488,0.078c0.13,0.052 0.234,0.122 0.313,0.21c0.078,0.087 0.135,0.188 0.17,0.302c0.036,0.114 0.054,0.233 0.054,0.357c0,0.169 -0.026,0.33 -0.078,0.483c-0.052,0.153 -0.104,0.308 -0.156,0.464l-1.289,5.147c-0.026,0.279 -0.049,0.537 -0.069,0.771c-0.019,0.234 -0.058,0.452 -0.117,0.654c-0.019,0.059 -0.044,0.132 -0.073,0.22c-0.029,0.088 -0.077,0.173 -0.142,0.254c-0.065,0.081 -0.146,0.151 -0.244,0.21c-0.097,0.058 -0.224,0.088 -0.381,0.088c-0.201,0 -0.363,-0.013 -0.483,-0.039c-0.12,-0.026 -0.213,-0.064 -0.278,-0.113c-0.065,-0.048 -0.108,-0.107 -0.127,-0.175c-0.02,-0.069 -0.03,-0.148 -0.03,-0.24Zm-3.242,-2.949c-0.026,0.091 -0.053,0.222 -0.083,0.391c-0.029,0.169 -0.044,0.338 -0.044,0.508c0,0.175 0.026,0.333 0.078,0.473c0.052,0.14 0.166,0.21 0.342,0.21c0.274,0 0.529,-0.06 0.767,-0.18c0.237,-0.121 0.46,-0.266 0.669,-0.435c0.28,-0.228 0.565,-0.483 0.854,-0.767c0.29,-0.283 0.563,-0.581 0.821,-0.893c0.257,-0.313 0.485,-0.633 0.683,-0.962c0.199,-0.329 0.344,-0.656 0.435,-0.982c0.052,-0.188 0.096,-0.406 0.132,-0.654c0.035,-0.247 0.053,-0.469 0.053,-0.664c0,-0.085 -0.019,-0.168 -0.058,-0.249c-0.039,-0.081 -0.114,-0.122 -0.225,-0.122c-0.319,0 -0.64,0.062 -0.962,0.186c-0.322,0.123 -0.633,0.289 -0.932,0.498c-0.3,0.208 -0.585,0.454 -0.855,0.737c-0.27,0.283 -0.516,0.586 -0.737,0.908c-0.222,0.322 -0.412,0.654 -0.572,0.996c-0.159,0.342 -0.281,0.676 -0.366,1.001Z" style="fill-rule:nonzero;"/><path d="M248.993,99.358c-0.052,0 -0.11,-0.011 -0.175,-0.034c-0.065,-0.023 -0.126,-0.059 -0.181,-0.108c-0.055,-0.048 -0.103,-0.11 -0.142,-0.185c-0.039,-0.075 -0.058,-0.165 -0.058,-0.269c0,-0.071 0.01,-0.146 0.029,-0.224c0.052,-0.215 0.108,-0.389 0.166,-0.523c0.059,-0.133 0.143,-0.246 0.254,-0.337c0.111,-0.091 0.26,-0.167 0.449,-0.229c0.189,-0.062 0.436,-0.125 0.742,-0.191c0.196,-0.039 0.38,-0.083 0.552,-0.131c0.173,-0.049 0.314,-0.109 0.425,-0.181c0.332,-0.293 0.614,-0.596 0.845,-0.908c0.231,-0.313 0.426,-0.637 0.586,-0.972c0.159,-0.335 0.293,-0.679 0.4,-1.03c0.107,-0.352 0.21,-0.71 0.308,-1.074c0.039,-0.124 0.073,-0.253 0.102,-0.386c0.03,-0.134 0.067,-0.285 0.113,-0.454c-0.248,0.215 -0.505,0.429 -0.772,0.644c-0.267,0.215 -0.54,0.407 -0.82,0.576c-0.28,0.17 -0.565,0.308 -0.855,0.415c-0.289,0.108 -0.578,0.162 -0.864,0.162c-0.169,0 -0.36,-0.053 -0.571,-0.157c-0.212,-0.104 -0.412,-0.241 -0.601,-0.41c-0.189,-0.169 -0.348,-0.366 -0.478,-0.591c-0.131,-0.224 -0.196,-0.46 -0.196,-0.708c0,-0.156 0.02,-0.325 0.059,-0.507c0.039,-0.183 0.075,-0.346 0.107,-0.489c0.104,-0.429 0.257,-0.846 0.459,-1.25c0.202,-0.403 0.436,-0.788 0.703,-1.152c0.267,-0.365 0.56,-0.711 0.879,-1.04c0.319,-0.329 0.651,-0.633 0.996,-0.913c0.43,-0.352 0.86,-0.606 1.289,-0.762c0.43,-0.156 0.886,-0.234 1.368,-0.234c0.201,0 0.395,0.009 0.581,0.029c0.185,0.02 0.361,0.06 0.527,0.122c0.166,0.062 0.321,0.153 0.464,0.273c0.143,0.121 0.273,0.279 0.391,0.474c0.026,0.046 0.047,0.099 0.063,0.161c0.016,0.062 0.024,0.116 0.024,0.161c0,0.052 -0.014,0.181 -0.044,0.386c-0.029,0.205 -0.068,0.459 -0.117,0.762c-0.049,0.303 -0.107,0.641 -0.175,1.015c-0.069,0.375 -0.139,0.752 -0.21,1.133c-0.072,0.381 -0.144,0.755 -0.215,1.123c-0.072,0.368 -0.14,0.699 -0.205,0.992c-0.111,0.514 -0.249,1.044 -0.415,1.591c-0.166,0.547 -0.368,1.081 -0.606,1.602c-0.238,0.521 -0.516,1.012 -0.835,1.475c-0.319,0.462 -0.69,0.867 -1.113,1.215c-0.423,0.349 -0.902,0.625 -1.436,0.83c-0.534,0.205 -1.132,0.308 -1.797,0.308Zm0.967,-8.086c-0.019,0.078 -0.037,0.158 -0.053,0.239c-0.017,0.082 -0.025,0.161 -0.025,0.24c0,0.143 0.026,0.267 0.078,0.371c0.052,0.104 0.147,0.156 0.283,0.156c0.215,0 0.468,-0.077 0.757,-0.23c0.29,-0.153 0.58,-0.346 0.869,-0.581c0.29,-0.234 0.564,-0.488 0.821,-0.761c0.257,-0.274 0.46,-0.534 0.61,-0.782c0.065,-0.104 0.151,-0.247 0.259,-0.429c0.107,-0.183 0.215,-0.379 0.322,-0.591c0.108,-0.212 0.204,-0.423 0.288,-0.635c0.085,-0.211 0.137,-0.399 0.156,-0.561c0,-0.111 -0.022,-0.214 -0.068,-0.308c-0.045,-0.094 -0.085,-0.226 -0.117,-0.395l-0.088,0c-0.156,0 -0.335,0.05 -0.537,0.151c-0.202,0.101 -0.415,0.233 -0.64,0.395c-0.224,0.163 -0.451,0.347 -0.678,0.552c-0.228,0.205 -0.443,0.414 -0.645,0.625c-0.202,0.212 -0.386,0.417 -0.552,0.615c-0.166,0.199 -0.294,0.373 -0.385,0.523c-0.137,0.215 -0.262,0.431 -0.376,0.649c-0.114,0.218 -0.207,0.471 -0.279,0.757Z" style="fill-rule:nonzero;"/><path d="M270.839,86.663c-0.293,-0.801 -0.439,-1.56 -0.439,-2.276c0,-1.009 0.447,-1.901 1.342,-2.675c0.896,-0.775 2.014,-1.163 3.355,-1.163c0.723,0 1.383,0.253 1.982,0.757c0.599,0.505 0.899,1.092 0.899,1.763c0,0.794 -0.373,1.509 -1.118,2.144c-0.746,0.634 -1.991,1.333 -3.736,2.094c0.463,0.899 1.309,2.051 2.539,3.457c1.114,-1.002 1.94,-2.028 2.481,-3.076c0.124,-0.293 0.348,-0.439 0.674,-0.439c0.221,0 0.431,0.079 0.63,0.239c0.198,0.159 0.297,0.347 0.297,0.561c0,0.163 -0.068,0.375 -0.205,0.635c-0.136,0.261 -0.459,0.692 -0.966,1.294c-0.508,0.602 -1.114,1.226 -1.817,1.87c0.833,0.69 1.729,1.084 2.686,1.182c0.586,0.052 0.879,0.404 0.879,1.055c0,0.227 -0.08,0.418 -0.24,0.571c-0.159,0.153 -0.366,0.229 -0.62,0.229c-1.282,0 -2.643,-0.631 -4.082,-1.894c-0.794,0.599 -1.65,1.064 -2.568,1.396c-0.918,0.332 -1.787,0.498 -2.608,0.498c-0.931,0 -1.824,-0.346 -2.68,-1.04c-0.856,-0.693 -1.284,-1.525 -1.284,-2.495c0,-0.931 0.382,-1.787 1.147,-2.568c0.765,-0.781 1.916,-1.488 3.452,-2.119Zm1.699,-0.694c1.237,-0.547 2.144,-1.043 2.72,-1.489c0.576,-0.446 0.864,-0.916 0.864,-1.411c0,-0.234 -0.094,-0.439 -0.283,-0.615c-0.189,-0.176 -0.436,-0.264 -0.742,-0.264c-0.846,0 -1.53,0.2 -2.051,0.601c-0.521,0.4 -0.781,0.932 -0.781,1.596c0,0.456 0.091,0.983 0.273,1.582Zm-1.093,2.061l-0.039,0.019c-1.146,0.489 -1.976,0.995 -2.491,1.519c-0.514,0.524 -0.771,1.118 -0.771,1.782c0,0.567 0.233,1.014 0.698,1.343c0.466,0.329 0.978,0.493 1.538,0.493c1.192,0 2.477,-0.439 3.858,-1.318c-1.244,-1.354 -2.175,-2.634 -2.793,-3.838Z" style="fill-rule:nonzero;"/><path d="M291.611,93.381c0.299,-0.214 0.603,-0.349 0.913,-0.405c0.309,-0.055 0.636,-0.099 0.981,-0.132l2.442,-9.882c-0.026,0 -0.1,-0.002 -0.22,-0.005c-0.121,-0.004 -0.254,-0.013 -0.401,-0.03c-0.146,-0.016 -0.291,-0.044 -0.434,-0.083c-0.143,-0.039 -0.251,-0.094 -0.322,-0.166c-0.033,-0.045 -0.074,-0.105 -0.122,-0.18c-0.049,-0.075 -0.096,-0.157 -0.142,-0.244c-0.046,-0.088 -0.085,-0.178 -0.117,-0.269c-0.033,-0.091 -0.049,-0.182 -0.049,-0.273c0,-0.15 0.063,-0.276 0.19,-0.376c0.127,-0.101 0.284,-0.183 0.469,-0.245c0.186,-0.061 0.386,-0.105 0.601,-0.131c0.215,-0.026 0.41,-0.039 0.586,-0.039c0.82,0 1.58,0.024 2.28,0.073c0.7,0.049 1.354,0.154 1.963,0.317c0.609,0.163 1.181,0.394 1.719,0.694c0.537,0.299 1.049,0.699 1.538,1.201c0.182,0.188 0.356,0.4 0.522,0.634c0.166,0.235 0.313,0.49 0.44,0.767c0.127,0.277 0.229,0.573 0.307,0.889c0.078,0.315 0.117,0.649 0.117,1.001c0,0.188 -0.009,0.387 -0.029,0.595c-0.019,0.209 -0.046,0.388 -0.078,0.538c-0.189,0.755 -0.454,1.424 -0.796,2.006c-0.342,0.583 -0.739,1.101 -1.191,1.553c-0.453,0.453 -0.949,0.845 -1.49,1.177c-0.54,0.332 -1.1,0.622 -1.679,0.869c-0.58,0.247 -1.169,0.462 -1.768,0.645c-0.599,0.182 -1.182,0.345 -1.748,0.488l0.01,0c-0.254,0.078 -0.528,0.146 -0.82,0.205c-0.293,0.058 -0.59,0.107 -0.889,0.146c-0.3,0.039 -0.597,0.07 -0.894,0.093c-0.296,0.023 -0.574,0.034 -0.835,0.034c-0.286,0 -0.527,-0.018 -0.722,-0.053c-0.196,-0.036 -0.354,-0.085 -0.474,-0.147c-0.12,-0.062 -0.207,-0.132 -0.259,-0.21c-0.052,-0.078 -0.078,-0.163 -0.078,-0.254c0,-0.13 0.038,-0.265 0.112,-0.405c0.075,-0.14 0.197,-0.272 0.367,-0.396Zm4.297,-2.802c-0.079,0.332 -0.16,0.674 -0.245,1.025c-0.084,0.352 -0.166,0.697 -0.244,1.035l0.225,-0.049c0.143,-0.032 0.337,-0.081 0.581,-0.146c0.244,-0.065 0.526,-0.147 0.845,-0.244c0.319,-0.098 0.654,-0.215 1.005,-0.352c0.352,-0.136 0.725,-0.301 1.119,-0.493c0.394,-0.192 0.783,-0.41 1.167,-0.654c0.384,-0.244 0.752,-0.51 1.103,-0.796c0.352,-0.287 0.661,-0.594 0.928,-0.923c0.267,-0.329 0.48,-0.674 0.64,-1.035c0.159,-0.361 0.239,-0.737 0.239,-1.128c0,-0.397 -0.078,-0.773 -0.235,-1.128c-0.156,-0.355 -0.366,-0.684 -0.629,-0.986c-0.264,-0.303 -0.57,-0.573 -0.918,-0.811c-0.349,-0.237 -0.712,-0.441 -1.089,-0.61c-0.378,-0.169 -0.76,-0.298 -1.148,-0.386c-0.387,-0.088 -0.753,-0.132 -1.098,-0.132c-0.489,1.263 -0.905,2.546 -1.25,3.848c-0.345,1.302 -0.677,2.624 -0.996,3.965Z" style="fill-rule:nonzero;"/><path d="M306.171,93.84c0.085,-0.455 0.182,-0.957 0.293,-1.503c0.111,-0.547 0.225,-1.101 0.342,-1.661c0.117,-0.56 0.231,-1.11 0.342,-1.65c0.11,-0.54 0.205,-1.035 0.283,-1.484c-0.007,-0.065 -0.01,-0.122 -0.01,-0.171c0,-0.049 0,-0.103 0,-0.161c0,-0.202 0.013,-0.404 0.039,-0.606c0.026,-0.202 0.062,-0.387 0.108,-0.557c0.071,-0.247 0.151,-0.415 0.239,-0.502c0.088,-0.088 0.229,-0.132 0.425,-0.132c0.189,0 0.34,0.037 0.454,0.112c0.114,0.075 0.203,0.174 0.268,0.298c0.066,0.124 0.108,0.265 0.127,0.425c0.02,0.159 0.03,0.324 0.03,0.493c0,0.091 -0.004,0.192 -0.01,0.303c-0.007,0.11 -0.01,0.198 -0.01,0.263c0.182,-0.189 0.376,-0.382 0.581,-0.581c0.205,-0.198 0.423,-0.377 0.654,-0.537c0.232,-0.159 0.476,-0.291 0.733,-0.395c0.257,-0.105 0.526,-0.157 0.806,-0.157c0.11,0 0.219,0.01 0.327,0.03c0.107,0.019 0.216,0.045 0.327,0.078c0.13,0.032 0.265,0.076 0.405,0.132c0.14,0.055 0.275,0.131 0.405,0.229c0.215,0.163 0.396,0.366 0.542,0.61c0.147,0.245 0.22,0.494 0.22,0.747c0,0.098 -0.019,0.204 -0.058,0.318c-0.04,0.114 -0.093,0.218 -0.162,0.312c-0.068,0.095 -0.148,0.173 -0.239,0.235c-0.091,0.062 -0.192,0.093 -0.303,0.093c-0.11,0 -0.245,-0.028 -0.405,-0.083c-0.159,-0.056 -0.291,-0.129 -0.395,-0.22c-0.046,-0.039 -0.093,-0.095 -0.142,-0.166c-0.049,-0.072 -0.094,-0.143 -0.137,-0.215c-0.042,-0.072 -0.081,-0.138 -0.117,-0.2c-0.036,-0.062 -0.063,-0.103 -0.083,-0.122c-0.032,-0.007 -0.068,-0.012 -0.107,-0.015c-0.039,-0.003 -0.075,-0.005 -0.108,-0.005c-0.332,0 -0.648,0.085 -0.947,0.254c-0.299,0.169 -0.579,0.376 -0.84,0.62c-0.26,0.244 -0.5,0.505 -0.718,0.781c-0.218,0.277 -0.408,0.526 -0.571,0.747c-0.13,0.528 -0.275,1.089 -0.434,1.685c-0.16,0.596 -0.318,1.219 -0.474,1.87l0,0.244c0,0.196 -0.007,0.394 -0.02,0.596c-0.013,0.202 -0.052,0.381 -0.117,0.537c-0.071,0.098 -0.174,0.181 -0.307,0.249c-0.134,0.069 -0.289,0.103 -0.464,0.103c-0.274,0 -0.479,-0.09 -0.616,-0.269c-0.136,-0.179 -0.205,-0.389 -0.205,-0.63c0,-0.11 0.017,-0.224 0.049,-0.342Z" style="fill-rule:nonzero;"/><path d="M314.589,91.106c0.098,-0.397 0.249,-0.819 0.454,-1.265c0.205,-0.446 0.474,-0.896 0.806,-1.352c0.332,-0.456 0.731,-0.902 1.196,-1.338c0.466,-0.436 1.004,-0.843 1.616,-1.221c0.098,-0.058 0.248,-0.122 0.45,-0.19c0.201,-0.068 0.41,-0.109 0.625,-0.122c0.254,-0.274 0.595,-0.41 1.025,-0.41c0.508,0 0.936,0.128 1.284,0.385c0.349,0.258 0.637,0.607 0.864,1.05c0.072,0.143 0.139,0.283 0.201,0.42c0.062,0.137 0.114,0.282 0.156,0.435c0.042,0.153 0.076,0.317 0.102,0.493c0.027,0.176 0.04,0.374 0.04,0.596c0,0.514 -0.082,1.038 -0.245,1.572c-0.162,0.534 -0.393,1.054 -0.693,1.562c-0.299,0.508 -0.662,0.995 -1.089,1.46c-0.426,0.466 -0.9,0.884 -1.421,1.255c-0.351,0.254 -0.74,0.451 -1.167,0.591c-0.426,0.14 -0.903,0.21 -1.43,0.21c-0.502,0 -0.936,-0.067 -1.304,-0.2c-0.368,-0.134 -0.674,-0.324 -0.918,-0.572c-0.244,-0.247 -0.427,-0.543 -0.547,-0.888c-0.12,-0.345 -0.181,-0.729 -0.181,-1.153c0,-0.41 0.059,-0.849 0.176,-1.318Zm1.621,0.127c-0.039,0.15 -0.066,0.291 -0.083,0.425c-0.016,0.133 -0.024,0.262 -0.024,0.386c0,0.214 0.028,0.415 0.083,0.6c0.055,0.186 0.145,0.345 0.268,0.479c0.124,0.133 0.279,0.237 0.464,0.312c0.186,0.075 0.412,0.112 0.679,0.112c0.495,0 0.955,-0.125 1.382,-0.375c0.426,-0.251 0.805,-0.565 1.138,-0.943c0.332,-0.377 0.61,-0.783 0.834,-1.216c0.225,-0.433 0.383,-0.831 0.474,-1.196c0.059,-0.228 0.109,-0.443 0.151,-0.645c0.043,-0.201 0.064,-0.387 0.064,-0.556c0,-0.169 -0.031,-0.327 -0.093,-0.474c-0.062,-0.146 -0.141,-0.311 -0.239,-0.493c-0.059,-0.111 -0.117,-0.226 -0.176,-0.347c-0.058,-0.12 -0.111,-0.239 -0.156,-0.356c-0.052,0.091 -0.108,0.171 -0.166,0.239c-0.059,0.069 -0.147,0.13 -0.264,0.186c-0.117,0.055 -0.276,0.106 -0.478,0.151c-0.202,0.046 -0.466,0.085 -0.791,0.117c-0.215,0.072 -0.433,0.183 -0.655,0.332c-0.221,0.15 -0.437,0.326 -0.649,0.528c-0.212,0.201 -0.413,0.42 -0.606,0.654c-0.192,0.234 -0.364,0.474 -0.517,0.718c-0.153,0.244 -0.287,0.483 -0.4,0.717c-0.114,0.235 -0.194,0.45 -0.24,0.645Z" style="fill-rule:nonzero;"/><path d="M324.218,98.46c0.13,-0.528 0.246,-1.011 0.347,-1.451c0.101,-0.439 0.193,-0.852 0.278,-1.24c0.085,-0.387 0.164,-0.762 0.239,-1.123c0.075,-0.361 0.15,-0.726 0.225,-1.094c0.075,-0.367 0.153,-0.75 0.234,-1.147c0.082,-0.397 0.171,-0.83 0.269,-1.299l0.469,-2.266c0.078,-0.384 0.131,-0.714 0.161,-0.991c0.029,-0.276 0.044,-0.532 0.044,-0.766c0,-0.248 0.006,-0.467 0.019,-0.66c0.013,-0.192 0.049,-0.354 0.108,-0.488c0.058,-0.133 0.145,-0.234 0.258,-0.303c0.114,-0.068 0.272,-0.102 0.474,-0.102c0.293,0 0.521,0.041 0.684,0.122c0.162,0.081 0.283,0.187 0.361,0.317c0.078,0.131 0.125,0.28 0.142,0.45c0.016,0.169 0.024,0.345 0.024,0.527c0.221,-0.156 0.48,-0.296 0.776,-0.42c0.297,-0.124 0.604,-0.226 0.923,-0.308c0.319,-0.081 0.642,-0.144 0.967,-0.19c0.326,-0.046 0.632,-0.068 0.918,-0.068c0.469,0 0.879,0.083 1.23,0.249c0.352,0.166 0.645,0.387 0.879,0.664c0.235,0.276 0.411,0.595 0.528,0.957c0.117,0.361 0.175,0.734 0.175,1.118c0,0.449 -0.071,0.872 -0.214,1.269c-0.144,0.398 -0.339,0.769 -0.586,1.114c-0.248,0.345 -0.536,0.665 -0.865,0.962c-0.328,0.296 -0.683,0.568 -1.064,0.815c-0.381,0.247 -0.775,0.474 -1.182,0.679c-0.407,0.205 -0.809,0.389 -1.206,0.551c-0.267,0.111 -0.519,0.194 -0.757,0.25c-0.237,0.055 -0.45,0.083 -0.639,0.083c-0.267,0 -0.526,-0.03 -0.777,-0.088c-0.25,-0.059 -0.493,-0.157 -0.727,-0.293c-0.13,0.442 -0.239,0.866 -0.327,1.269c-0.088,0.404 -0.158,0.762 -0.21,1.074c-0.033,0.196 -0.072,0.401 -0.117,0.616c-0.046,0.214 -0.092,0.424 -0.137,0.63c-0.046,0.205 -0.09,0.398 -0.132,0.581c-0.042,0.182 -0.076,0.338 -0.102,0.468c-0.02,0.078 -0.067,0.144 -0.142,0.196c-0.075,0.052 -0.164,0.096 -0.269,0.131c-0.104,0.036 -0.21,0.062 -0.317,0.079c-0.107,0.016 -0.203,0.024 -0.288,0.024c-0.482,0 -0.723,-0.189 -0.723,-0.566c0,-0.105 0.017,-0.215 0.049,-0.332Zm3.027,-5.664c0.098,0.013 0.202,0.029 0.313,0.048c0.111,0.02 0.218,0.039 0.322,0.059c0.104,0.019 0.194,0.037 0.269,0.054c0.075,0.016 0.125,0.024 0.151,0.024c0.124,0 0.262,-0.016 0.415,-0.049c0.153,-0.032 0.306,-0.075 0.459,-0.127c0.153,-0.052 0.301,-0.109 0.444,-0.171c0.144,-0.061 0.271,-0.122 0.381,-0.18c0.319,-0.163 0.659,-0.36 1.021,-0.591c0.361,-0.231 0.696,-0.497 1.006,-0.796c0.309,-0.299 0.564,-0.635 0.766,-1.006c0.202,-0.371 0.303,-0.781 0.303,-1.23c0,-0.183 -0.023,-0.352 -0.068,-0.508c-0.046,-0.156 -0.114,-0.293 -0.205,-0.41c-0.092,-0.117 -0.21,-0.21 -0.357,-0.279c-0.146,-0.068 -0.32,-0.102 -0.522,-0.102c-0.222,0 -0.43,0.015 -0.625,0.044c-0.196,0.029 -0.388,0.076 -0.576,0.141c-0.189,0.066 -0.378,0.149 -0.567,0.249c-0.189,0.101 -0.384,0.223 -0.586,0.367c-0.182,0.149 -0.387,0.281 -0.615,0.395c-0.228,0.114 -0.475,0.187 -0.742,0.22l-0.987,3.848Z" style="fill-rule:nonzero;"/><path d="M217.734,111.809c0,-0.547 0.062,-1.115 0.185,-1.704c0.124,-0.589 0.254,-1.154 0.391,-1.694c-0.169,-0.007 -0.342,-0.033 -0.518,-0.078c-0.175,-0.046 -0.335,-0.108 -0.478,-0.186c-0.143,-0.078 -0.261,-0.174 -0.352,-0.288c-0.091,-0.114 -0.137,-0.246 -0.137,-0.396c0,-0.058 0.014,-0.133 0.04,-0.224c0.026,-0.091 0.063,-0.181 0.112,-0.269c0.049,-0.088 0.112,-0.162 0.19,-0.224c0.078,-0.062 0.166,-0.093 0.264,-0.093l1.309,0c0.123,0 0.208,-0.054 0.253,-0.161c0.046,-0.108 0.082,-0.213 0.108,-0.318c0.085,-0.377 0.164,-0.704 0.239,-0.981c0.075,-0.277 0.138,-0.511 0.191,-0.703c0.052,-0.192 0.092,-0.348 0.122,-0.469c0.029,-0.12 0.044,-0.216 0.044,-0.288c0,-0.085 -0.004,-0.166 -0.01,-0.244c-0.007,-0.078 -0.01,-0.186 -0.01,-0.322l0,-0.098c0,-0.052 0.005,-0.12 0.015,-0.205c0.009,-0.085 0.04,-0.205 0.092,-0.361c0.04,-0.124 0.111,-0.241 0.215,-0.352c0.104,-0.111 0.257,-0.166 0.459,-0.166c0.176,0 0.326,0.036 0.45,0.107c0.123,0.072 0.224,0.166 0.302,0.284c0.078,0.117 0.137,0.25 0.176,0.4c0.039,0.15 0.059,0.299 0.059,0.449c0,0.163 -0.017,0.309 -0.049,0.44l-0.713,2.734c0.351,-0.059 0.664,-0.114 0.937,-0.166c0.274,-0.052 0.547,-0.104 0.821,-0.156c0.299,-0.059 0.558,-0.114 0.776,-0.166c0.218,-0.052 0.405,-0.096 0.562,-0.132c0.156,-0.036 0.288,-0.065 0.395,-0.088c0.108,-0.023 0.197,-0.034 0.269,-0.034c0.104,0 0.21,0.008 0.317,0.024c0.107,0.017 0.202,0.044 0.283,0.083c0.082,0.039 0.148,0.095 0.2,0.166c0.053,0.072 0.079,0.166 0.079,0.283c0,0.157 -0.031,0.295 -0.093,0.416c-0.062,0.12 -0.142,0.224 -0.239,0.312c-0.098,0.088 -0.209,0.16 -0.332,0.215c-0.124,0.055 -0.248,0.096 -0.372,0.122c-0.104,0.019 -0.239,0.049 -0.405,0.088c-0.166,0.039 -0.348,0.081 -0.547,0.127c-0.198,0.045 -0.405,0.094 -0.62,0.146c-0.215,0.052 -0.423,0.104 -0.625,0.157c-0.299,0.078 -0.555,0.143 -0.766,0.195c-0.212,0.052 -0.393,0.091 -0.542,0.117c-0.15,0.026 -0.272,0.046 -0.367,0.059c-0.094,0.013 -0.171,0.019 -0.229,0.019c-0.124,0.371 -0.231,0.736 -0.322,1.094c-0.092,0.358 -0.168,0.692 -0.23,1.001c-0.062,0.309 -0.107,0.586 -0.137,0.83c-0.029,0.244 -0.044,0.435 -0.044,0.571c0,0.176 0.017,0.344 0.049,0.503c0.033,0.16 0.088,0.298 0.166,0.415c0.078,0.117 0.184,0.21 0.318,0.279c0.133,0.068 0.301,0.102 0.503,0.102c0.345,0 0.683,-0.094 1.015,-0.283c0.332,-0.189 0.65,-0.428 0.952,-0.718c0.303,-0.29 0.59,-0.607 0.86,-0.952c0.27,-0.345 0.519,-0.674 0.747,-0.986c0.078,-0.118 0.179,-0.176 0.303,-0.176c0.039,0 0.086,0.006 0.141,0.019c0.055,0.013 0.109,0.036 0.161,0.069c0.052,0.032 0.096,0.075 0.132,0.127c0.036,0.052 0.054,0.114 0.054,0.185c0,0.052 -0.003,0.091 -0.01,0.117c-0.104,0.404 -0.265,0.809 -0.483,1.216c-0.218,0.407 -0.441,0.816 -0.669,1.226c-0.078,0.143 -0.181,0.283 -0.308,0.42c-0.127,0.136 -0.265,0.268 -0.415,0.395c-0.15,0.127 -0.306,0.248 -0.469,0.362c-0.162,0.114 -0.315,0.216 -0.459,0.307c-0.247,0.156 -0.517,0.264 -0.81,0.322c-0.293,0.059 -0.576,0.088 -0.85,0.088c-0.423,0 -0.799,-0.076 -1.128,-0.229c-0.329,-0.153 -0.605,-0.361 -0.83,-0.625c-0.224,-0.264 -0.395,-0.571 -0.513,-0.923c-0.117,-0.352 -0.175,-0.729 -0.175,-1.133Z" style="fill-rule:nonzero;"/><path d="M226.992,111.106c0.097,-0.397 0.249,-0.819 0.454,-1.265c0.205,-0.446 0.473,-0.896 0.805,-1.352c0.332,-0.456 0.731,-0.902 1.197,-1.338c0.465,-0.436 1.004,-0.843 1.616,-1.221c0.097,-0.058 0.247,-0.122 0.449,-0.19c0.202,-0.068 0.41,-0.109 0.625,-0.122c0.254,-0.274 0.596,-0.41 1.025,-0.41c0.508,0 0.936,0.128 1.285,0.385c0.348,0.258 0.636,0.607 0.864,1.05c0.071,0.143 0.138,0.283 0.2,0.42c0.062,0.137 0.114,0.282 0.156,0.435c0.043,0.153 0.077,0.317 0.103,0.493c0.026,0.176 0.039,0.374 0.039,0.596c0,0.514 -0.082,1.038 -0.244,1.572c-0.163,0.534 -0.394,1.054 -0.694,1.562c-0.299,0.508 -0.662,0.995 -1.089,1.46c-0.426,0.466 -0.9,0.884 -1.42,1.255c-0.352,0.254 -0.741,0.451 -1.167,0.591c-0.427,0.14 -0.904,0.21 -1.431,0.21c-0.501,0 -0.936,-0.067 -1.304,-0.2c-0.368,-0.134 -0.674,-0.324 -0.918,-0.572c-0.244,-0.247 -0.426,-0.543 -0.547,-0.888c-0.12,-0.345 -0.18,-0.729 -0.18,-1.153c0,-0.41 0.058,-0.849 0.176,-1.318Zm1.621,0.127c-0.039,0.15 -0.067,0.291 -0.083,0.425c-0.017,0.133 -0.025,0.262 -0.025,0.386c0,0.214 0.028,0.415 0.083,0.6c0.056,0.186 0.145,0.345 0.269,0.479c0.123,0.133 0.278,0.237 0.464,0.312c0.185,0.075 0.411,0.112 0.678,0.112c0.495,0 0.956,-0.125 1.382,-0.375c0.427,-0.251 0.806,-0.565 1.138,-0.943c0.332,-0.377 0.61,-0.783 0.835,-1.216c0.224,-0.433 0.382,-0.831 0.473,-1.196c0.059,-0.228 0.109,-0.443 0.152,-0.645c0.042,-0.201 0.063,-0.387 0.063,-0.556c0,-0.169 -0.031,-0.327 -0.092,-0.474c-0.062,-0.146 -0.142,-0.311 -0.24,-0.493c-0.058,-0.111 -0.117,-0.226 -0.176,-0.347c-0.058,-0.12 -0.11,-0.239 -0.156,-0.356c-0.052,0.091 -0.107,0.171 -0.166,0.239c-0.058,0.069 -0.146,0.13 -0.263,0.186c-0.118,0.055 -0.277,0.106 -0.479,0.151c-0.202,0.046 -0.465,0.085 -0.791,0.117c-0.215,0.072 -0.433,0.183 -0.654,0.332c-0.222,0.15 -0.438,0.326 -0.65,0.528c-0.211,0.201 -0.413,0.42 -0.605,0.654c-0.192,0.234 -0.365,0.474 -0.518,0.718c-0.153,0.244 -0.286,0.483 -0.4,0.717c-0.114,0.235 -0.194,0.45 -0.239,0.645Z" style="fill-rule:nonzero;"/><path d="M247.265,111.028c0.124,-0.501 0.308,-1.025 0.552,-1.572c0.244,-0.547 0.538,-1.076 0.883,-1.587c0.346,-0.511 0.738,-0.983 1.177,-1.416c0.44,-0.433 0.92,-0.786 1.441,-1.06c0.169,-0.091 0.354,-0.159 0.556,-0.205c0.202,-0.045 0.407,-0.068 0.616,-0.068c0.214,0 0.415,0.019 0.6,0.058c0.186,0.039 0.345,0.105 0.479,0.196c0.133,0.091 0.239,0.208 0.317,0.351c0.078,0.143 0.117,0.319 0.117,0.528c0,0.156 -0.023,0.314 -0.068,0.473c-0.046,0.16 -0.114,0.303 -0.205,0.43c-0.091,0.127 -0.205,0.229 -0.342,0.307c-0.137,0.079 -0.296,0.118 -0.479,0.118c-0.143,0 -0.275,-0.026 -0.395,-0.078c-0.12,-0.053 -0.236,-0.111 -0.347,-0.176c-0.058,-0.039 -0.114,-0.073 -0.166,-0.103c-0.052,-0.029 -0.114,-0.057 -0.185,-0.083c-0.261,0.117 -0.506,0.272 -0.738,0.464c-0.231,0.192 -0.446,0.405 -0.644,0.64c-0.199,0.234 -0.381,0.485 -0.547,0.752c-0.166,0.267 -0.316,0.534 -0.449,0.8c-0.134,0.267 -0.248,0.529 -0.342,0.787c-0.094,0.257 -0.171,0.493 -0.229,0.708c-0.046,0.156 -0.087,0.333 -0.123,0.532c-0.035,0.198 -0.053,0.392 -0.053,0.581c0,0.13 0.011,0.254 0.034,0.371c0.023,0.117 0.063,0.221 0.122,0.312c0.059,0.092 0.137,0.163 0.234,0.215c0.098,0.052 0.218,0.078 0.362,0.078c0.228,0 0.454,-0.029 0.678,-0.087c0.225,-0.059 0.445,-0.134 0.66,-0.225c0.214,-0.091 0.424,-0.197 0.629,-0.317c0.206,-0.121 0.406,-0.243 0.601,-0.367c0.124,-0.078 0.247,-0.159 0.371,-0.244c0.124,-0.084 0.241,-0.159 0.352,-0.224c0.11,-0.065 0.213,-0.119 0.307,-0.162c0.095,-0.042 0.178,-0.063 0.249,-0.063c0.098,0 0.189,0.024 0.274,0.073c0.084,0.049 0.127,0.132 0.127,0.249c0,0.085 -0.02,0.179 -0.059,0.283c-0.091,0.254 -0.215,0.482 -0.371,0.684c-0.156,0.202 -0.33,0.383 -0.522,0.542c-0.192,0.16 -0.398,0.301 -0.616,0.425c-0.218,0.124 -0.434,0.237 -0.649,0.342c-0.404,0.215 -0.812,0.376 -1.226,0.483c-0.413,0.107 -0.76,0.161 -1.04,0.161c-0.091,0 -0.198,-0.01 -0.322,-0.029c-0.124,-0.02 -0.231,-0.049 -0.322,-0.088c-0.528,-0.228 -0.912,-0.534 -1.153,-0.918c-0.24,-0.384 -0.361,-0.84 -0.361,-1.367c0,-0.228 0.018,-0.467 0.054,-0.718c0.036,-0.251 0.089,-0.513 0.161,-0.786Z" style="fill-rule:nonzero;"/><path d="M262.47,115.403c-0.404,0 -0.68,-0.088 -0.83,-0.264c-0.15,-0.176 -0.225,-0.416 -0.225,-0.722c0,-0.163 0.017,-0.339 0.049,-0.528c0.033,-0.189 0.075,-0.384 0.127,-0.586c0.091,-0.345 0.194,-0.688 0.308,-1.03c0.114,-0.342 0.228,-0.687 0.342,-1.035c0.113,-0.348 0.224,-0.697 0.332,-1.045c0.107,-0.348 0.203,-0.698 0.288,-1.05c0.006,-0.032 0.009,-0.075 0.009,-0.127c0,-0.091 -0.022,-0.163 -0.068,-0.215c-0.046,-0.052 -0.114,-0.078 -0.205,-0.078c-0.143,0 -0.298,0.03 -0.464,0.088c-0.166,0.059 -0.304,0.124 -0.415,0.195c-0.436,0.293 -0.819,0.583 -1.147,0.87c-0.329,0.286 -0.63,0.586 -0.904,0.898c-0.273,0.313 -0.532,0.646 -0.776,1.001c-0.244,0.355 -0.5,0.744 -0.767,1.167c-0.228,0.423 -0.397,0.783 -0.507,1.079c-0.111,0.296 -0.214,0.536 -0.308,0.718c-0.095,0.182 -0.2,0.314 -0.317,0.395c-0.118,0.082 -0.293,0.122 -0.528,0.122c-0.26,0 -0.444,-0.074 -0.552,-0.224c-0.107,-0.15 -0.161,-0.345 -0.161,-0.586c0,-0.189 0.03,-0.4 0.088,-0.635l3.223,-12.91c0.019,-0.078 0.052,-0.163 0.097,-0.254c0.046,-0.091 0.108,-0.176 0.186,-0.254c0.078,-0.078 0.171,-0.143 0.278,-0.195c0.108,-0.052 0.23,-0.078 0.367,-0.078c0.104,0 0.214,0.005 0.332,0.014c0.117,0.01 0.223,0.03 0.317,0.059c0.094,0.029 0.172,0.076 0.234,0.142c0.062,0.065 0.093,0.149 0.093,0.253c0,0.027 -0.006,0.08 -0.019,0.162c-0.013,0.081 -0.033,0.174 -0.059,0.278c-0.352,1.413 -0.728,2.884 -1.128,4.414c-0.4,1.53 -0.806,3.076 -1.216,4.639c0.397,-0.489 0.811,-0.936 1.24,-1.343c0.43,-0.407 0.871,-0.757 1.324,-1.05c0.452,-0.293 0.921,-0.522 1.406,-0.688c0.485,-0.166 0.988,-0.249 1.509,-0.249c0.332,0 0.589,0.105 0.771,0.317c0.183,0.212 0.274,0.48 0.274,0.806c0,0.149 -0.02,0.296 -0.059,0.439c-0.078,0.3 -0.166,0.594 -0.264,0.884c-0.097,0.29 -0.198,0.581 -0.302,0.874c-0.104,0.293 -0.209,0.591 -0.313,0.893c-0.104,0.303 -0.195,0.614 -0.273,0.933c-0.104,0.41 -0.176,0.799 -0.215,1.167c-0.039,0.368 -0.065,0.663 -0.078,0.884c-0.013,0.189 -0.043,0.371 -0.088,0.547c-0.046,0.176 -0.112,0.33 -0.2,0.464c-0.088,0.133 -0.199,0.24 -0.332,0.322c-0.134,0.081 -0.292,0.122 -0.474,0.122Z" style="fill-rule:nonzero;"/><path d="M271.474,114.426c0,-0.188 0.023,-0.415 0.068,-0.678c0.046,-0.264 0.069,-0.591 0.069,-0.982c-0.215,0.156 -0.453,0.342 -0.713,0.557c-0.261,0.215 -0.531,0.42 -0.811,0.615c-0.28,0.195 -0.558,0.36 -0.835,0.493c-0.276,0.134 -0.535,0.2 -0.776,0.2c-0.195,0 -0.381,-0.029 -0.557,-0.087c-0.176,-0.059 -0.325,-0.137 -0.449,-0.235c-0.345,-0.273 -0.594,-0.547 -0.747,-0.82c-0.153,-0.274 -0.23,-0.593 -0.23,-0.957c0,-0.163 0.015,-0.332 0.044,-0.508c0.03,-0.176 0.074,-0.378 0.132,-0.605c0.248,-1.029 0.672,-1.981 1.275,-2.857c0.602,-0.876 1.349,-1.623 2.241,-2.241c0.345,-0.241 0.69,-0.396 1.035,-0.464c0.345,-0.068 0.687,-0.102 1.025,-0.102c0.15,0 0.318,0.009 0.503,0.029c0.186,0.019 0.354,0.039 0.503,0.058c0.15,-0.032 0.272,-0.055 0.366,-0.068c0.095,-0.013 0.194,-0.019 0.298,-0.019c0.196,0 0.358,0.026 0.489,0.078c0.13,0.052 0.234,0.122 0.312,0.21c0.078,0.087 0.135,0.188 0.171,0.302c0.036,0.114 0.054,0.233 0.054,0.357c0,0.169 -0.026,0.33 -0.078,0.483c-0.052,0.153 -0.105,0.308 -0.157,0.464l-1.289,5.147c-0.026,0.279 -0.049,0.537 -0.068,0.771c-0.02,0.234 -0.059,0.452 -0.117,0.654c-0.02,0.059 -0.044,0.132 -0.074,0.22c-0.029,0.088 -0.076,0.173 -0.141,0.254c-0.065,0.081 -0.147,0.151 -0.244,0.21c-0.098,0.058 -0.225,0.088 -0.381,0.088c-0.202,0 -0.363,-0.013 -0.484,-0.039c-0.12,-0.026 -0.213,-0.064 -0.278,-0.113c-0.065,-0.048 -0.107,-0.107 -0.127,-0.175c-0.019,-0.069 -0.029,-0.148 -0.029,-0.24Zm-3.242,-2.949c-0.026,0.091 -0.054,0.222 -0.083,0.391c-0.03,0.169 -0.044,0.338 -0.044,0.508c0,0.175 0.026,0.333 0.078,0.473c0.052,0.14 0.166,0.21 0.342,0.21c0.273,0 0.529,-0.06 0.766,-0.18c0.238,-0.121 0.461,-0.266 0.669,-0.435c0.28,-0.228 0.565,-0.483 0.855,-0.767c0.289,-0.283 0.563,-0.581 0.82,-0.893c0.257,-0.313 0.485,-0.633 0.684,-0.962c0.198,-0.329 0.343,-0.656 0.434,-0.982c0.052,-0.188 0.096,-0.406 0.132,-0.654c0.036,-0.247 0.054,-0.469 0.054,-0.664c0,-0.085 -0.02,-0.168 -0.059,-0.249c-0.039,-0.081 -0.114,-0.122 -0.224,-0.122c-0.319,0 -0.64,0.062 -0.962,0.186c-0.323,0.123 -0.633,0.289 -0.933,0.498c-0.299,0.208 -0.584,0.454 -0.854,0.737c-0.271,0.283 -0.516,0.586 -0.738,0.908c-0.221,0.322 -0.412,0.654 -0.571,0.996c-0.16,0.342 -0.282,0.676 -0.366,1.001Z" style="fill-rule:nonzero;"/><path d="M283.359,106.829c-0.228,0 -0.472,0.053 -0.733,0.161c-0.26,0.107 -0.53,0.252 -0.81,0.434c-0.28,0.183 -0.565,0.389 -0.855,0.621c-0.289,0.231 -0.574,0.47 -0.854,0.717c-0.143,0.124 -0.28,0.236 -0.41,0.337c-0.131,0.101 -0.261,0.178 -0.391,0.23c-0.091,0.149 -0.187,0.346 -0.288,0.591c-0.101,0.244 -0.2,0.511 -0.298,0.8c-0.098,0.29 -0.19,0.586 -0.278,0.889c-0.088,0.303 -0.161,0.584 -0.22,0.845c-0.033,0.136 -0.059,0.27 -0.078,0.4c-0.02,0.13 -0.042,0.269 -0.069,0.415c-0.026,0.147 -0.056,0.305 -0.092,0.474c-0.036,0.169 -0.08,0.358 -0.132,0.566c-0.033,0.124 -0.085,0.223 -0.156,0.298c-0.072,0.075 -0.147,0.132 -0.225,0.171c-0.078,0.039 -0.153,0.063 -0.225,0.073c-0.071,0.01 -0.127,0.015 -0.166,0.015c-0.247,0 -0.449,-0.059 -0.605,-0.176c-0.156,-0.117 -0.234,-0.345 -0.234,-0.684c0,-0.091 0.003,-0.187 0.009,-0.288c0.007,-0.101 0.026,-0.213 0.059,-0.337c0.143,-0.618 0.281,-1.175 0.415,-1.669c0.133,-0.495 0.269,-0.954 0.405,-1.377c0.137,-0.424 0.275,-0.822 0.415,-1.197c0.14,-0.374 0.283,-0.752 0.43,-1.133c0.146,-0.38 0.299,-0.774 0.459,-1.181c0.159,-0.407 0.33,-0.858 0.513,-1.353c0.039,-0.11 0.141,-0.203 0.307,-0.278c0.166,-0.075 0.344,-0.112 0.532,-0.112c0.248,0 0.451,0.055 0.611,0.166c0.159,0.11 0.239,0.27 0.239,0.478c0,0.02 -0.006,0.056 -0.019,0.108c-0.013,0.052 -0.033,0.107 -0.059,0.166l-0.43,1.015c0.274,-0.215 0.559,-0.429 0.855,-0.644c0.296,-0.215 0.6,-0.409 0.913,-0.581c0.312,-0.173 0.626,-0.313 0.942,-0.42c0.316,-0.108 0.627,-0.161 0.933,-0.161c0.625,0 1.113,0.167 1.465,0.503c0.351,0.335 0.527,0.854 0.527,1.557c0,0.404 -0.07,0.863 -0.21,1.377c-0.14,0.514 -0.316,1.066 -0.527,1.655c-0.212,0.59 -0.44,1.208 -0.684,1.856c-0.244,0.648 -0.47,1.307 -0.679,1.977c-0.058,0.183 -0.118,0.336 -0.18,0.459c-0.062,0.124 -0.135,0.223 -0.22,0.298c-0.085,0.075 -0.184,0.129 -0.298,0.161c-0.114,0.033 -0.252,0.049 -0.415,0.049c-0.254,0 -0.43,-0.047 -0.527,-0.141c-0.098,-0.095 -0.147,-0.246 -0.147,-0.454c0,-0.183 0.028,-0.406 0.083,-0.669c0.056,-0.264 0.134,-0.554 0.235,-0.87c0.101,-0.315 0.218,-0.652 0.351,-1.01c0.134,-0.358 0.279,-0.723 0.435,-1.094c0.124,-0.3 0.246,-0.599 0.366,-0.899c0.12,-0.299 0.228,-0.589 0.322,-0.869c0.095,-0.28 0.171,-0.547 0.23,-0.8c0.058,-0.254 0.088,-0.489 0.088,-0.704c0,-0.201 -0.044,-0.379 -0.132,-0.532c-0.088,-0.153 -0.252,-0.229 -0.493,-0.229Z" style="fill-rule:nonzero;"/><path d="M288.017,119.358c-0.052,0 -0.111,-0.011 -0.176,-0.034c-0.065,-0.023 -0.125,-0.059 -0.181,-0.108c-0.055,-0.048 -0.102,-0.11 -0.141,-0.185c-0.039,-0.075 -0.059,-0.165 -0.059,-0.269c0,-0.071 0.01,-0.146 0.03,-0.224c0.052,-0.215 0.107,-0.389 0.166,-0.523c0.058,-0.133 0.143,-0.246 0.253,-0.337c0.111,-0.091 0.261,-0.167 0.45,-0.229c0.188,-0.062 0.436,-0.125 0.742,-0.191c0.195,-0.039 0.379,-0.083 0.552,-0.131c0.172,-0.049 0.314,-0.109 0.424,-0.181c0.332,-0.293 0.614,-0.596 0.845,-0.908c0.231,-0.313 0.427,-0.637 0.586,-0.972c0.16,-0.335 0.293,-0.679 0.4,-1.03c0.108,-0.352 0.21,-0.71 0.308,-1.074c0.039,-0.124 0.073,-0.253 0.103,-0.386c0.029,-0.134 0.066,-0.285 0.112,-0.454c-0.247,0.215 -0.505,0.429 -0.772,0.644c-0.266,0.215 -0.54,0.407 -0.82,0.576c-0.28,0.17 -0.565,0.308 -0.854,0.415c-0.29,0.108 -0.578,0.162 -0.865,0.162c-0.169,0 -0.359,-0.053 -0.571,-0.157c-0.211,-0.104 -0.412,-0.241 -0.6,-0.41c-0.189,-0.169 -0.349,-0.366 -0.479,-0.591c-0.13,-0.224 -0.195,-0.46 -0.195,-0.708c0,-0.156 0.019,-0.325 0.058,-0.507c0.039,-0.183 0.075,-0.346 0.108,-0.489c0.104,-0.429 0.257,-0.846 0.459,-1.25c0.202,-0.403 0.436,-0.788 0.703,-1.152c0.267,-0.365 0.56,-0.711 0.879,-1.04c0.319,-0.329 0.651,-0.633 0.996,-0.913c0.43,-0.352 0.859,-0.606 1.289,-0.762c0.43,-0.156 0.885,-0.234 1.367,-0.234c0.202,0 0.396,0.009 0.581,0.029c0.186,0.02 0.361,0.06 0.527,0.122c0.166,0.062 0.321,0.153 0.464,0.273c0.144,0.121 0.274,0.279 0.391,0.474c0.026,0.046 0.047,0.099 0.063,0.161c0.017,0.062 0.025,0.116 0.025,0.161c0,0.052 -0.015,0.181 -0.044,0.386c-0.029,0.205 -0.068,0.459 -0.117,0.762c-0.049,0.303 -0.108,0.641 -0.176,1.015c-0.068,0.375 -0.138,0.752 -0.21,1.133c-0.072,0.381 -0.143,0.755 -0.215,1.123c-0.071,0.368 -0.14,0.699 -0.205,0.992c-0.111,0.514 -0.249,1.044 -0.415,1.591c-0.166,0.547 -0.368,1.081 -0.605,1.602c-0.238,0.521 -0.516,1.012 -0.835,1.475c-0.319,0.462 -0.691,0.867 -1.114,1.215c-0.423,0.349 -0.901,0.625 -1.435,0.83c-0.534,0.205 -1.133,0.308 -1.797,0.308Zm0.967,-8.086c-0.02,0.078 -0.038,0.158 -0.054,0.239c-0.016,0.082 -0.024,0.161 -0.024,0.24c0,0.143 0.026,0.267 0.078,0.371c0.052,0.104 0.146,0.156 0.283,0.156c0.215,0 0.467,-0.077 0.757,-0.23c0.289,-0.153 0.579,-0.346 0.869,-0.581c0.29,-0.234 0.563,-0.488 0.82,-0.761c0.257,-0.274 0.461,-0.534 0.611,-0.782c0.065,-0.104 0.151,-0.247 0.258,-0.429c0.108,-0.183 0.215,-0.379 0.323,-0.591c0.107,-0.212 0.203,-0.423 0.288,-0.635c0.084,-0.211 0.136,-0.399 0.156,-0.561c0,-0.111 -0.023,-0.214 -0.068,-0.308c-0.046,-0.094 -0.085,-0.226 -0.118,-0.395l-0.088,0c-0.156,0 -0.335,0.05 -0.537,0.151c-0.201,0.101 -0.415,0.233 -0.639,0.395c-0.225,0.163 -0.451,0.347 -0.679,0.552c-0.228,0.205 -0.443,0.414 -0.645,0.625c-0.201,0.212 -0.385,0.417 -0.551,0.615c-0.166,0.199 -0.295,0.373 -0.386,0.523c-0.137,0.215 -0.262,0.431 -0.376,0.649c-0.114,0.218 -0.207,0.471 -0.278,0.757Z" style="fill-rule:nonzero;"/><path d="M296.796,111.077c0,-0.28 0.075,-0.518 0.225,-0.713c0.15,-0.195 0.348,-0.326 0.596,-0.391c0.071,-0.143 0.182,-0.337 0.332,-0.581c0.149,-0.244 0.335,-0.509 0.556,-0.796c0.222,-0.286 0.474,-0.574 0.757,-0.864c0.283,-0.29 0.596,-0.553 0.938,-0.791c0.341,-0.238 0.709,-0.431 1.103,-0.581c0.394,-0.15 0.812,-0.225 1.255,-0.225c0.378,0 0.706,0.046 0.986,0.137c0.28,0.091 0.511,0.218 0.694,0.381c0.182,0.163 0.319,0.356 0.41,0.581c0.091,0.225 0.136,0.467 0.136,0.728c0,0.221 -0.029,0.432 -0.087,0.634c-0.092,0.365 -0.261,0.684 -0.508,0.957c-0.248,0.274 -0.539,0.513 -0.874,0.718c-0.336,0.205 -0.7,0.376 -1.094,0.513c-0.394,0.137 -0.788,0.25 -1.182,0.342c-0.394,0.091 -0.773,0.161 -1.137,0.21c-0.365,0.048 -0.681,0.086 -0.948,0.112c-0.058,0.117 -0.109,0.265 -0.151,0.444c-0.042,0.179 -0.063,0.353 -0.063,0.523c0,0.377 0.149,0.67 0.449,0.879c0.299,0.208 0.713,0.312 1.24,0.312c0.306,0 0.599,-0.034 0.879,-0.102c0.28,-0.069 0.545,-0.157 0.796,-0.264c0.25,-0.108 0.486,-0.225 0.708,-0.352c0.221,-0.127 0.423,-0.252 0.605,-0.376c0.235,-0.156 0.458,-0.288 0.669,-0.395c0.212,-0.108 0.399,-0.161 0.562,-0.161c0.163,0 0.267,0.04 0.312,0.122c0.046,0.081 0.069,0.167 0.069,0.259c0,0.052 -0.002,0.102 -0.005,0.151c-0.004,0.049 -0.008,0.089 -0.015,0.122c-0.032,0.169 -0.098,0.339 -0.195,0.508c-0.098,0.169 -0.222,0.316 -0.371,0.439c-0.677,0.534 -1.372,0.915 -2.085,1.143c-0.713,0.228 -1.473,0.342 -2.281,0.342c-0.156,0 -0.34,-0.01 -0.551,-0.03c-0.212,-0.019 -0.432,-0.058 -0.659,-0.117c-0.228,-0.058 -0.453,-0.143 -0.674,-0.254c-0.222,-0.11 -0.419,-0.257 -0.591,-0.439c-0.173,-0.183 -0.313,-0.407 -0.42,-0.674c-0.107,-0.267 -0.161,-0.589 -0.161,-0.967c0,-0.306 0.042,-0.648 0.127,-1.025c-0.085,-0.013 -0.165,-0.057 -0.24,-0.132c-0.074,-0.075 -0.112,-0.184 -0.112,-0.327Zm6.113,-2.705c0.013,-0.033 0.02,-0.062 0.02,-0.088c0,-0.026 0,-0.056 0,-0.088c0,-0.176 -0.065,-0.308 -0.195,-0.396c-0.131,-0.087 -0.287,-0.131 -0.469,-0.131c-0.287,0 -0.568,0.074 -0.845,0.224c-0.276,0.15 -0.537,0.337 -0.781,0.562c-0.244,0.224 -0.461,0.465 -0.649,0.722c-0.189,0.258 -0.336,0.49 -0.44,0.699c0.469,-0.039 0.899,-0.103 1.289,-0.191c0.391,-0.088 0.731,-0.198 1.021,-0.332c0.289,-0.133 0.524,-0.283 0.703,-0.449c0.179,-0.166 0.294,-0.344 0.346,-0.532Z" style="fill-rule:nonzero;"/><path d="M217.734,131.809c0,-0.547 0.062,-1.115 0.185,-1.704c0.124,-0.589 0.254,-1.154 0.391,-1.694c-0.169,-0.007 -0.342,-0.033 -0.518,-0.078c-0.175,-0.046 -0.335,-0.108 -0.478,-0.186c-0.143,-0.078 -0.261,-0.174 -0.352,-0.288c-0.091,-0.114 -0.137,-0.246 -0.137,-0.396c0,-0.058 0.014,-0.133 0.04,-0.224c0.026,-0.091 0.063,-0.181 0.112,-0.269c0.049,-0.088 0.112,-0.162 0.19,-0.224c0.078,-0.062 0.166,-0.093 0.264,-0.093l1.309,0c0.123,0 0.208,-0.054 0.253,-0.161c0.046,-0.108 0.082,-0.213 0.108,-0.318c0.085,-0.377 0.164,-0.704 0.239,-0.981c0.075,-0.277 0.138,-0.511 0.191,-0.703c0.052,-0.192 0.092,-0.348 0.122,-0.469c0.029,-0.12 0.044,-0.216 0.044,-0.288c0,-0.085 -0.004,-0.166 -0.01,-0.244c-0.007,-0.078 -0.01,-0.186 -0.01,-0.322l0,-0.098c0,-0.052 0.005,-0.12 0.015,-0.205c0.009,-0.085 0.04,-0.205 0.092,-0.361c0.04,-0.124 0.111,-0.241 0.215,-0.352c0.104,-0.111 0.257,-0.166 0.459,-0.166c0.176,0 0.326,0.036 0.45,0.107c0.123,0.072 0.224,0.166 0.302,0.284c0.078,0.117 0.137,0.25 0.176,0.4c0.039,0.15 0.059,0.299 0.059,0.449c0,0.163 -0.017,0.309 -0.049,0.44l-0.713,2.734c0.351,-0.059 0.664,-0.114 0.937,-0.166c0.274,-0.052 0.547,-0.104 0.821,-0.156c0.299,-0.059 0.558,-0.114 0.776,-0.166c0.218,-0.052 0.405,-0.096 0.562,-0.132c0.156,-0.036 0.288,-0.065 0.395,-0.088c0.108,-0.023 0.197,-0.034 0.269,-0.034c0.104,0 0.21,0.008 0.317,0.024c0.107,0.017 0.202,0.044 0.283,0.083c0.082,0.039 0.148,0.095 0.2,0.166c0.053,0.072 0.079,0.166 0.079,0.283c0,0.157 -0.031,0.295 -0.093,0.416c-0.062,0.12 -0.142,0.224 -0.239,0.312c-0.098,0.088 -0.209,0.16 -0.332,0.215c-0.124,0.055 -0.248,0.096 -0.372,0.122c-0.104,0.019 -0.239,0.049 -0.405,0.088c-0.166,0.039 -0.348,0.081 -0.547,0.127c-0.198,0.045 -0.405,0.094 -0.62,0.146c-0.215,0.052 -0.423,0.104 -0.625,0.157c-0.299,0.078 -0.555,0.143 -0.766,0.195c-0.212,0.052 -0.393,0.091 -0.542,0.117c-0.15,0.026 -0.272,0.046 -0.367,0.059c-0.094,0.013 -0.171,0.019 -0.229,0.019c-0.124,0.371 -0.231,0.736 -0.322,1.094c-0.092,0.358 -0.168,0.692 -0.23,1.001c-0.062,0.309 -0.107,0.586 -0.137,0.83c-0.029,0.244 -0.044,0.435 -0.044,0.571c0,0.176 0.017,0.344 0.049,0.503c0.033,0.16 0.088,0.298 0.166,0.415c0.078,0.117 0.184,0.21 0.318,0.279c0.133,0.068 0.301,0.102 0.503,0.102c0.345,0 0.683,-0.094 1.015,-0.283c0.332,-0.189 0.65,-0.428 0.952,-0.718c0.303,-0.29 0.59,-0.607 0.86,-0.952c0.27,-0.345 0.519,-0.674 0.747,-0.986c0.078,-0.118 0.179,-0.176 0.303,-0.176c0.039,0 0.086,0.006 0.141,0.019c0.055,0.013 0.109,0.036 0.161,0.069c0.052,0.032 0.096,0.075 0.132,0.127c0.036,0.052 0.054,0.114 0.054,0.185c0,0.052 -0.003,0.091 -0.01,0.117c-0.104,0.404 -0.265,0.809 -0.483,1.216c-0.218,0.407 -0.441,0.816 -0.669,1.226c-0.078,0.143 -0.181,0.283 -0.308,0.42c-0.127,0.136 -0.265,0.268 -0.415,0.395c-0.15,0.127 -0.306,0.248 -0.469,0.362c-0.162,0.114 -0.315,0.216 -0.459,0.307c-0.247,0.156 -0.517,0.264 -0.81,0.322c-0.293,0.059 -0.576,0.088 -0.85,0.088c-0.423,0 -0.799,-0.076 -1.128,-0.229c-0.329,-0.153 -0.605,-0.361 -0.83,-0.625c-0.224,-0.264 -0.395,-0.571 -0.513,-0.923c-0.117,-0.352 -0.175,-0.729 -0.175,-1.133Z" style="fill-rule:nonzero;"/><path d="M233.632,135.403c-0.404,0 -0.68,-0.088 -0.83,-0.264c-0.15,-0.176 -0.225,-0.416 -0.225,-0.722c0,-0.163 0.017,-0.339 0.049,-0.528c0.033,-0.189 0.075,-0.384 0.127,-0.586c0.091,-0.345 0.194,-0.688 0.308,-1.03c0.114,-0.342 0.228,-0.687 0.342,-1.035c0.114,-0.348 0.224,-0.697 0.332,-1.045c0.107,-0.348 0.203,-0.698 0.288,-1.05c0.006,-0.032 0.01,-0.075 0.01,-0.127c0,-0.091 -0.023,-0.163 -0.069,-0.215c-0.045,-0.052 -0.114,-0.078 -0.205,-0.078c-0.143,0 -0.298,0.03 -0.464,0.088c-0.166,0.059 -0.304,0.124 -0.415,0.195c-0.436,0.293 -0.819,0.583 -1.147,0.87c-0.329,0.286 -0.63,0.586 -0.904,0.898c-0.273,0.313 -0.532,0.646 -0.776,1.001c-0.244,0.355 -0.5,0.744 -0.767,1.167c-0.227,0.423 -0.397,0.783 -0.507,1.079c-0.111,0.296 -0.214,0.536 -0.308,0.718c-0.094,0.182 -0.2,0.314 -0.317,0.395c-0.118,0.082 -0.293,0.122 -0.528,0.122c-0.26,0 -0.444,-0.074 -0.551,-0.224c-0.108,-0.15 -0.162,-0.345 -0.162,-0.586c0,-0.189 0.03,-0.4 0.088,-0.635l3.223,-12.91c0.019,-0.078 0.052,-0.163 0.098,-0.254c0.045,-0.091 0.107,-0.176 0.185,-0.254c0.078,-0.078 0.171,-0.143 0.278,-0.195c0.108,-0.052 0.23,-0.078 0.367,-0.078c0.104,0 0.215,0.005 0.332,0.014c0.117,0.01 0.223,0.03 0.317,0.059c0.094,0.029 0.173,0.076 0.234,0.142c0.062,0.065 0.093,0.149 0.093,0.253c0,0.027 -0.006,0.08 -0.019,0.162c-0.013,0.081 -0.033,0.174 -0.059,0.278c-0.351,1.413 -0.727,2.884 -1.128,4.414c-0.4,1.53 -0.805,3.076 -1.216,4.639c0.397,-0.489 0.811,-0.936 1.241,-1.343c0.429,-0.407 0.87,-0.757 1.323,-1.05c0.452,-0.293 0.921,-0.522 1.406,-0.688c0.485,-0.166 0.988,-0.249 1.509,-0.249c0.332,0 0.589,0.105 0.771,0.317c0.183,0.212 0.274,0.48 0.274,0.806c0,0.149 -0.02,0.296 -0.059,0.439c-0.078,0.3 -0.166,0.594 -0.263,0.884c-0.098,0.29 -0.199,0.581 -0.303,0.874c-0.104,0.293 -0.209,0.591 -0.313,0.893c-0.104,0.303 -0.195,0.614 -0.273,0.933c-0.104,0.41 -0.176,0.799 -0.215,1.167c-0.039,0.368 -0.065,0.663 -0.078,0.884c-0.013,0.189 -0.042,0.371 -0.088,0.547c-0.046,0.176 -0.112,0.33 -0.2,0.464c-0.088,0.133 -0.199,0.24 -0.332,0.322c-0.134,0.081 -0.292,0.122 -0.474,0.122Z" style="fill-rule:nonzero;"/><path d="M237.753,131.077c0,-0.28 0.075,-0.518 0.225,-0.713c0.15,-0.195 0.348,-0.326 0.596,-0.391c0.071,-0.143 0.182,-0.337 0.332,-0.581c0.149,-0.244 0.335,-0.509 0.556,-0.796c0.222,-0.286 0.474,-0.574 0.757,-0.864c0.283,-0.29 0.596,-0.553 0.938,-0.791c0.341,-0.238 0.709,-0.431 1.103,-0.581c0.394,-0.15 0.812,-0.225 1.255,-0.225c0.378,0 0.706,0.046 0.986,0.137c0.28,0.091 0.511,0.218 0.694,0.381c0.182,0.163 0.319,0.356 0.41,0.581c0.091,0.225 0.137,0.467 0.137,0.728c0,0.221 -0.03,0.432 -0.088,0.634c-0.092,0.365 -0.261,0.684 -0.508,0.957c-0.248,0.274 -0.539,0.513 -0.874,0.718c-0.336,0.205 -0.7,0.376 -1.094,0.513c-0.394,0.137 -0.788,0.25 -1.182,0.342c-0.393,0.091 -0.773,0.161 -1.137,0.21c-0.365,0.048 -0.681,0.086 -0.948,0.112c-0.058,0.117 -0.109,0.265 -0.151,0.444c-0.042,0.179 -0.063,0.353 -0.063,0.523c0,0.377 0.149,0.67 0.449,0.879c0.299,0.208 0.713,0.312 1.24,0.312c0.306,0 0.599,-0.034 0.879,-0.102c0.28,-0.069 0.545,-0.157 0.796,-0.264c0.25,-0.108 0.486,-0.225 0.708,-0.352c0.221,-0.127 0.423,-0.252 0.605,-0.376c0.235,-0.156 0.458,-0.288 0.669,-0.395c0.212,-0.108 0.399,-0.161 0.562,-0.161c0.163,0 0.267,0.04 0.312,0.122c0.046,0.081 0.069,0.167 0.069,0.259c0,0.052 -0.002,0.102 -0.005,0.151c-0.003,0.049 -0.008,0.089 -0.015,0.122c-0.032,0.169 -0.098,0.339 -0.195,0.508c-0.098,0.169 -0.222,0.316 -0.371,0.439c-0.677,0.534 -1.372,0.915 -2.085,1.143c-0.713,0.228 -1.473,0.342 -2.281,0.342c-0.156,0 -0.34,-0.01 -0.551,-0.03c-0.212,-0.019 -0.432,-0.058 -0.659,-0.117c-0.228,-0.058 -0.453,-0.143 -0.674,-0.254c-0.222,-0.11 -0.419,-0.257 -0.591,-0.439c-0.173,-0.183 -0.313,-0.407 -0.42,-0.674c-0.107,-0.267 -0.161,-0.589 -0.161,-0.967c0,-0.306 0.042,-0.648 0.127,-1.025c-0.085,-0.013 -0.165,-0.057 -0.239,-0.132c-0.075,-0.075 -0.113,-0.184 -0.113,-0.327Zm6.114,-2.705c0.013,-0.033 0.019,-0.062 0.019,-0.088c0,-0.026 0,-0.056 0,-0.088c0,-0.176 -0.065,-0.308 -0.195,-0.396c-0.13,-0.087 -0.287,-0.131 -0.469,-0.131c-0.286,0 -0.568,0.074 -0.845,0.224c-0.276,0.15 -0.537,0.337 -0.781,0.562c-0.244,0.224 -0.461,0.465 -0.649,0.722c-0.189,0.258 -0.336,0.49 -0.44,0.699c0.469,-0.039 0.899,-0.103 1.289,-0.191c0.391,-0.088 0.731,-0.198 1.021,-0.332c0.289,-0.133 0.524,-0.283 0.703,-0.449c0.179,-0.166 0.294,-0.344 0.347,-0.532Z" style="fill-rule:nonzero;"/><path d="M257.636,131.106c0.098,-0.397 0.249,-0.819 0.454,-1.265c0.205,-0.446 0.474,-0.896 0.806,-1.352c0.332,-0.456 0.731,-0.902 1.196,-1.338c0.466,-0.436 1.004,-0.843 1.616,-1.221c0.098,-0.058 0.248,-0.122 0.45,-0.19c0.201,-0.068 0.41,-0.109 0.625,-0.122c0.253,-0.274 0.595,-0.41 1.025,-0.41c0.508,0 0.936,0.128 1.284,0.385c0.348,0.258 0.636,0.607 0.864,1.05c0.072,0.143 0.139,0.283 0.201,0.42c0.061,0.137 0.113,0.282 0.156,0.435c0.042,0.153 0.076,0.317 0.102,0.493c0.026,0.176 0.039,0.374 0.039,0.596c0,0.514 -0.081,1.038 -0.244,1.572c-0.163,0.534 -0.394,1.054 -0.693,1.562c-0.3,0.508 -0.663,0.995 -1.089,1.46c-0.426,0.466 -0.9,0.884 -1.421,1.255c-0.351,0.254 -0.74,0.451 -1.167,0.591c-0.426,0.14 -0.903,0.21 -1.431,0.21c-0.501,0 -0.935,-0.067 -1.303,-0.2c-0.368,-0.134 -0.674,-0.324 -0.918,-0.572c-0.244,-0.247 -0.427,-0.543 -0.547,-0.888c-0.121,-0.345 -0.181,-0.729 -0.181,-1.153c0,-0.41 0.059,-0.849 0.176,-1.318Zm1.621,0.127c-0.039,0.15 -0.067,0.291 -0.083,0.425c-0.016,0.133 -0.024,0.262 -0.024,0.386c0,0.214 0.027,0.415 0.083,0.6c0.055,0.186 0.145,0.345 0.268,0.479c0.124,0.133 0.279,0.237 0.464,0.312c0.186,0.075 0.412,0.112 0.679,0.112c0.495,0 0.955,-0.125 1.382,-0.375c0.426,-0.251 0.805,-0.565 1.137,-0.943c0.332,-0.377 0.611,-0.783 0.835,-1.216c0.225,-0.433 0.383,-0.831 0.474,-1.196c0.059,-0.228 0.109,-0.443 0.151,-0.645c0.043,-0.201 0.064,-0.387 0.064,-0.556c0,-0.169 -0.031,-0.327 -0.093,-0.474c-0.062,-0.146 -0.142,-0.311 -0.239,-0.493c-0.059,-0.111 -0.117,-0.226 -0.176,-0.347c-0.059,-0.12 -0.111,-0.239 -0.156,-0.356c-0.052,0.091 -0.108,0.171 -0.166,0.239c-0.059,0.069 -0.147,0.13 -0.264,0.186c-0.117,0.055 -0.277,0.106 -0.478,0.151c-0.202,0.046 -0.466,0.085 -0.791,0.117c-0.215,0.072 -0.433,0.183 -0.655,0.332c-0.221,0.15 -0.438,0.326 -0.649,0.528c-0.212,0.201 -0.414,0.42 -0.606,0.654c-0.192,0.234 -0.364,0.474 -0.517,0.718c-0.153,0.244 -0.287,0.483 -0.401,0.717c-0.114,0.235 -0.193,0.45 -0.239,0.645Z" style="fill-rule:nonzero;"/><path d="M268.31,133.84c0.085,-0.455 0.182,-0.957 0.293,-1.503c0.111,-0.547 0.224,-1.101 0.342,-1.661c0.117,-0.56 0.231,-1.11 0.341,-1.65c0.111,-0.54 0.206,-1.035 0.284,-1.484c-0.007,-0.065 -0.01,-0.122 -0.01,-0.171c0,-0.049 0,-0.103 0,-0.161c0,-0.202 0.013,-0.404 0.039,-0.606c0.026,-0.202 0.062,-0.387 0.107,-0.557c0.072,-0.247 0.152,-0.415 0.24,-0.502c0.087,-0.088 0.229,-0.132 0.424,-0.132c0.189,0 0.341,0.037 0.455,0.112c0.113,0.075 0.203,0.174 0.268,0.298c0.065,0.124 0.107,0.265 0.127,0.425c0.02,0.159 0.029,0.324 0.029,0.493c0,0.091 -0.003,0.192 -0.009,0.303c-0.007,0.11 -0.01,0.198 -0.01,0.263c0.182,-0.189 0.376,-0.382 0.581,-0.581c0.205,-0.198 0.423,-0.377 0.654,-0.537c0.231,-0.159 0.475,-0.291 0.733,-0.395c0.257,-0.105 0.525,-0.157 0.805,-0.157c0.111,0 0.22,0.01 0.327,0.03c0.108,0.019 0.217,0.045 0.328,0.078c0.13,0.032 0.265,0.076 0.405,0.132c0.14,0.055 0.275,0.131 0.405,0.229c0.215,0.163 0.396,0.366 0.542,0.61c0.147,0.245 0.22,0.494 0.22,0.747c0,0.098 -0.02,0.204 -0.059,0.318c-0.039,0.114 -0.093,0.218 -0.161,0.312c-0.068,0.095 -0.148,0.173 -0.239,0.235c-0.091,0.062 -0.192,0.093 -0.303,0.093c-0.111,0 -0.246,-0.028 -0.405,-0.083c-0.16,-0.056 -0.292,-0.129 -0.396,-0.22c-0.045,-0.039 -0.092,-0.095 -0.141,-0.166c-0.049,-0.072 -0.095,-0.143 -0.137,-0.215c-0.042,-0.072 -0.081,-0.138 -0.117,-0.2c-0.036,-0.062 -0.064,-0.103 -0.083,-0.122c-0.033,-0.007 -0.069,-0.012 -0.108,-0.015c-0.039,-0.003 -0.075,-0.005 -0.107,-0.005c-0.332,0 -0.648,0.085 -0.947,0.254c-0.3,0.169 -0.58,0.376 -0.84,0.62c-0.261,0.244 -0.5,0.505 -0.718,0.781c-0.218,0.277 -0.408,0.526 -0.571,0.747c-0.13,0.528 -0.275,1.089 -0.435,1.685c-0.159,0.596 -0.317,1.219 -0.473,1.87l0,0.244c0,0.196 -0.007,0.394 -0.02,0.596c-0.013,0.202 -0.052,0.381 -0.117,0.537c-0.072,0.098 -0.174,0.181 -0.308,0.249c-0.133,0.069 -0.288,0.103 -0.464,0.103c-0.273,0 -0.478,-0.09 -0.615,-0.269c-0.137,-0.179 -0.205,-0.389 -0.205,-0.63c0,-0.11 0.016,-0.224 0.049,-0.342Z" style="fill-rule:nonzero;"/><path d="M276.523,131.497c0.084,-0.352 0.197,-0.703 0.337,-1.055c0.14,-0.352 0.314,-0.7 0.522,-1.045c0.208,-0.345 0.456,-0.682 0.742,-1.011c0.287,-0.328 0.622,-0.643 1.006,-0.942c0.261,-0.208 0.536,-0.405 0.825,-0.591c0.29,-0.185 0.585,-0.347 0.884,-0.483c0.3,-0.137 0.601,-0.246 0.903,-0.327c0.303,-0.082 0.601,-0.122 0.894,-0.122c0.215,0 0.405,0.017 0.571,0.053c0.166,0.036 0.324,0.086 0.474,0.152c0.065,-0.228 0.239,-0.84 0.522,-1.836c0.284,-0.996 0.63,-2.383 1.04,-4.16c0.072,-0.176 0.173,-0.323 0.303,-0.44c0.13,-0.117 0.287,-0.176 0.469,-0.176c0.13,0 0.257,0.012 0.381,0.034c0.124,0.023 0.234,0.069 0.332,0.137c0.097,0.069 0.176,0.161 0.234,0.278c0.059,0.118 0.088,0.271 0.088,0.459l-1.963,7.842c-0.058,0.222 -0.114,0.519 -0.166,0.894c-0.052,0.374 -0.101,0.77 -0.146,1.186c-0.046,0.417 -0.082,0.829 -0.108,1.236c-0.026,0.407 -0.039,0.757 -0.039,1.05c0,0.364 -0.042,0.725 -0.127,1.083c-0.039,0.157 -0.079,0.289 -0.122,0.396c-0.042,0.107 -0.099,0.195 -0.171,0.264c-0.071,0.068 -0.161,0.117 -0.268,0.146c-0.108,0.029 -0.243,0.044 -0.406,0.044c-0.188,0 -0.335,-0.019 -0.439,-0.058c-0.104,-0.04 -0.182,-0.093 -0.234,-0.162c-0.052,-0.068 -0.083,-0.146 -0.093,-0.234c-0.01,-0.088 -0.016,-0.182 -0.02,-0.283c-0.003,-0.101 -0.009,-0.205 -0.019,-0.313c-0.01,-0.107 -0.038,-0.21 -0.083,-0.307c-0.078,0.052 -0.186,0.12 -0.322,0.205c-0.137,0.084 -0.276,0.171 -0.416,0.259c-0.139,0.087 -0.271,0.169 -0.395,0.244c-0.124,0.075 -0.215,0.128 -0.273,0.161c-0.15,0.084 -0.319,0.174 -0.508,0.268c-0.189,0.095 -0.393,0.183 -0.611,0.264c-0.218,0.081 -0.446,0.148 -0.683,0.2c-0.238,0.052 -0.477,0.078 -0.718,0.078c-0.293,0 -0.578,-0.048 -0.854,-0.146c-0.277,-0.098 -0.525,-0.248 -0.743,-0.449c-0.218,-0.202 -0.392,-0.458 -0.522,-0.767c-0.13,-0.309 -0.195,-0.672 -0.195,-1.089c0,-0.15 0.008,-0.298 0.024,-0.444c0.016,-0.147 0.047,-0.311 0.093,-0.493Zm1.689,-0.078c-0.052,0.195 -0.078,0.384 -0.078,0.566c0,0.189 0.016,0.366 0.049,0.532c0.032,0.166 0.093,0.311 0.181,0.435c0.087,0.123 0.205,0.223 0.351,0.298c0.147,0.074 0.337,0.112 0.571,0.112c0.131,0 0.271,-0.023 0.42,-0.068c0.15,-0.046 0.298,-0.103 0.445,-0.171c0.146,-0.069 0.283,-0.14 0.41,-0.215c0.127,-0.075 0.236,-0.142 0.327,-0.2c0.247,-0.163 0.477,-0.323 0.688,-0.479c0.212,-0.156 0.402,-0.325 0.572,-0.508c0.169,-0.182 0.317,-0.385 0.444,-0.61c0.127,-0.225 0.23,-0.483 0.308,-0.776c0.065,-0.261 0.122,-0.498 0.171,-0.713c0.048,-0.215 0.092,-0.425 0.131,-0.63c0.04,-0.205 0.075,-0.415 0.108,-0.63c0.032,-0.215 0.065,-0.453 0.098,-0.713c-0.033,-0.039 -0.077,-0.076 -0.132,-0.112c-0.056,-0.036 -0.139,-0.054 -0.249,-0.054c-0.261,0 -0.547,0.044 -0.86,0.132c-0.312,0.088 -0.633,0.213 -0.962,0.376c-0.328,0.163 -0.651,0.361 -0.966,0.596c-0.316,0.234 -0.609,0.496 -0.879,0.786c-0.271,0.289 -0.507,0.607 -0.708,0.952c-0.202,0.345 -0.349,0.709 -0.44,1.094Z" style="fill-rule:nonzero;"/><path d="M287.411,131.077c0,-0.28 0.075,-0.518 0.225,-0.713c0.15,-0.195 0.348,-0.326 0.596,-0.391c0.071,-0.143 0.182,-0.337 0.332,-0.581c0.15,-0.244 0.335,-0.509 0.556,-0.796c0.222,-0.286 0.474,-0.574 0.757,-0.864c0.283,-0.29 0.596,-0.553 0.938,-0.791c0.342,-0.238 0.709,-0.431 1.103,-0.581c0.394,-0.15 0.812,-0.225 1.255,-0.225c0.378,0 0.707,0.046 0.986,0.137c0.28,0.091 0.512,0.218 0.694,0.381c0.182,0.163 0.319,0.356 0.41,0.581c0.091,0.225 0.137,0.467 0.137,0.728c0,0.221 -0.03,0.432 -0.088,0.634c-0.091,0.365 -0.261,0.684 -0.508,0.957c-0.247,0.274 -0.539,0.513 -0.874,0.718c-0.335,0.205 -0.7,0.376 -1.094,0.513c-0.394,0.137 -0.788,0.25 -1.181,0.342c-0.394,0.091 -0.774,0.161 -1.138,0.21c-0.365,0.048 -0.68,0.086 -0.947,0.112c-0.059,0.117 -0.109,0.265 -0.152,0.444c-0.042,0.179 -0.063,0.353 -0.063,0.523c0,0.377 0.15,0.67 0.449,0.879c0.299,0.208 0.713,0.312 1.24,0.312c0.306,0 0.599,-0.034 0.879,-0.102c0.28,-0.069 0.545,-0.157 0.796,-0.264c0.251,-0.108 0.487,-0.225 0.708,-0.352c0.221,-0.127 0.423,-0.252 0.606,-0.376c0.234,-0.156 0.457,-0.288 0.668,-0.395c0.212,-0.108 0.399,-0.161 0.562,-0.161c0.163,0 0.267,0.04 0.312,0.122c0.046,0.081 0.069,0.167 0.069,0.259c0,0.052 -0.002,0.102 -0.005,0.151c-0.003,0.049 -0.008,0.089 -0.015,0.122c-0.032,0.169 -0.097,0.339 -0.195,0.508c-0.098,0.169 -0.221,0.316 -0.371,0.439c-0.677,0.534 -1.372,0.915 -2.085,1.143c-0.713,0.228 -1.473,0.342 -2.28,0.342c-0.157,0 -0.34,-0.01 -0.552,-0.03c-0.212,-0.019 -0.431,-0.058 -0.659,-0.117c-0.228,-0.058 -0.453,-0.143 -0.674,-0.254c-0.221,-0.11 -0.418,-0.257 -0.591,-0.439c-0.172,-0.183 -0.312,-0.407 -0.42,-0.674c-0.107,-0.267 -0.161,-0.589 -0.161,-0.967c0,-0.306 0.042,-0.648 0.127,-1.025c-0.085,-0.013 -0.164,-0.057 -0.239,-0.132c-0.075,-0.075 -0.113,-0.184 -0.113,-0.327Zm6.114,-2.705c0.013,-0.033 0.019,-0.062 0.019,-0.088c0,-0.026 0,-0.056 0,-0.088c0,-0.176 -0.065,-0.308 -0.195,-0.396c-0.13,-0.087 -0.287,-0.131 -0.469,-0.131c-0.286,0 -0.568,0.074 -0.845,0.224c-0.276,0.15 -0.537,0.337 -0.781,0.562c-0.244,0.224 -0.46,0.465 -0.649,0.722c-0.189,0.258 -0.335,0.49 -0.44,0.699c0.469,-0.039 0.899,-0.103 1.289,-0.191c0.391,-0.088 0.731,-0.198 1.021,-0.332c0.29,-0.133 0.524,-0.283 0.703,-0.449c0.179,-0.166 0.295,-0.344 0.347,-0.532Z" style="fill-rule:nonzero;"/><path d="M297.626,133.84c0.085,-0.455 0.183,-0.957 0.293,-1.503c0.111,-0.547 0.225,-1.101 0.342,-1.661c0.117,-0.56 0.231,-1.11 0.342,-1.65c0.111,-0.54 0.205,-1.035 0.283,-1.484c-0.006,-0.065 -0.01,-0.122 -0.01,-0.171c0,-0.049 0,-0.103 0,-0.161c0,-0.202 0.013,-0.404 0.039,-0.606c0.026,-0.202 0.062,-0.387 0.108,-0.557c0.071,-0.247 0.151,-0.415 0.239,-0.502c0.088,-0.088 0.23,-0.132 0.425,-0.132c0.189,0 0.34,0.037 0.454,0.112c0.114,0.075 0.203,0.174 0.268,0.298c0.066,0.124 0.108,0.265 0.127,0.425c0.02,0.159 0.03,0.324 0.03,0.493c0,0.091 -0.004,0.192 -0.01,0.303c-0.007,0.11 -0.01,0.198 -0.01,0.263c0.182,-0.189 0.376,-0.382 0.581,-0.581c0.205,-0.198 0.423,-0.377 0.655,-0.537c0.231,-0.159 0.475,-0.291 0.732,-0.395c0.257,-0.105 0.526,-0.157 0.806,-0.157c0.11,0 0.219,0.01 0.327,0.03c0.107,0.019 0.216,0.045 0.327,0.078c0.13,0.032 0.265,0.076 0.405,0.132c0.14,0.055 0.275,0.131 0.405,0.229c0.215,0.163 0.396,0.366 0.542,0.61c0.147,0.245 0.22,0.494 0.22,0.747c0,0.098 -0.019,0.204 -0.058,0.318c-0.039,0.114 -0.093,0.218 -0.162,0.312c-0.068,0.095 -0.148,0.173 -0.239,0.235c-0.091,0.062 -0.192,0.093 -0.303,0.093c-0.11,0 -0.245,-0.028 -0.405,-0.083c-0.159,-0.056 -0.291,-0.129 -0.395,-0.22c-0.046,-0.039 -0.093,-0.095 -0.142,-0.166c-0.049,-0.072 -0.094,-0.143 -0.137,-0.215c-0.042,-0.072 -0.081,-0.138 -0.117,-0.2c-0.036,-0.062 -0.063,-0.103 -0.083,-0.122c-0.032,-0.007 -0.068,-0.012 -0.107,-0.015c-0.039,-0.003 -0.075,-0.005 -0.108,-0.005c-0.332,0 -0.647,0.085 -0.947,0.254c-0.299,0.169 -0.579,0.376 -0.84,0.62c-0.26,0.244 -0.499,0.505 -0.718,0.781c-0.218,0.277 -0.408,0.526 -0.571,0.747c-0.13,0.528 -0.275,1.089 -0.434,1.685c-0.16,0.596 -0.318,1.219 -0.474,1.87l0,0.244c0,0.196 -0.007,0.394 -0.02,0.596c-0.013,0.202 -0.052,0.381 -0.117,0.537c-0.071,0.098 -0.174,0.181 -0.307,0.249c-0.134,0.069 -0.288,0.103 -0.464,0.103c-0.274,0 -0.479,-0.09 -0.615,-0.269c-0.137,-0.179 -0.206,-0.389 -0.206,-0.63c0,-0.11 0.017,-0.224 0.049,-0.342Z" style="fill-rule:nonzero;"/></g></svg>