<?xml version="1.0" encoding="UTF-8" standalone="no"?><!DOCTYPE svg PUBLIC "-//W3C//DTD SVG 1.1//EN" "http://www.w3.org/Graphics/SVG/1.1/DTD/svg11.dtd"><svg width="100%" height="100%" viewBox="0 0 160 52" version="1.1" xmlns="http://www.w3.org/2000/svg" xmlns:xlink="http://www.w3.org/1999/xlink" xml:space="preserve" xmlns:serif="http://www.serif.com/" style="fill-rule:evenodd;clip-rule:evenodd;stroke-linejoin:round;stroke-miterlimit:1.41421;"><rect id="ArtBoard1" x="0" y="0" width="159.18" height="51.984" style="fill:none;"/><path d="M32.203,51.458c7.056,0 6.552,-9.423 0,-9.423l-21.96,0l0,-10.809l18.144,0c6.408,0 6.408,-9.423 0,-9.423l-18.144,0l0,-10.809l20.736,0c6.48,0 6.624,-9.351 0,-9.351l-25.844,0c-2.517,0 -4.459,1.871 -4.459,4.46l0,40.896c0,2.517 1.942,4.459 4.459,4.459l27.068,0Z" style="fill:#167df0;fill-rule:nonzero;"/><path d="M65.326,34.97c2.376,3.168 5.617,3.168 8.21,0l11.956,-15.12l0,26.64c0,3.168 2.014,4.968 4.603,4.968c2.302,0 4.316,-1.8 4.316,-4.968l0,-40.536c0,-4.968 -5.827,-6.12 -8.2,-3.168l-16.42,22.176l-15.844,-21.384c-1.223,-1.368 -2.445,-2.592 -4.532,-2.592c-1.15,0 -4.315,1.224 -4.315,4.968l0,40.536c0,3.168 2.014,4.968 4.315,4.968c2.59,0 5.18,-1.8 5.18,-4.968l0,-26.64l10.731,15.12Z" style="fill:#167df0;fill-rule:nonzero;"/><path d="M104.932,47.071c0,6.12 9.495,5.976 9.495,0l0,-41.112c0,-6.12 -9.495,-5.904 -9.495,0l0,41.112Z" style="fill:#167df0;fill-rule:nonzero;"/><path d="M125.092,47.071c0,2.589 2.014,4.387 4.531,4.387l23.828,0c7.2,0 7.056,-9.423 0,-9.423l-19.584,0l0,-36.072c0,-2.376 -1.942,-4.392 -4.244,-4.392c-2.517,0 -4.531,2.016 -4.531,4.392l0,41.108Z" style="fill:#167df0;fill-rule:nonzero;"/></svg>